solid CATIA STL
  facet normal -1.000000e+000  0.000000e+000  -0.000000e+000
    outer loop
      vertex  0.000000e+000  0.000000e+000  0.000000e+000
      vertex  0.000000e+000  1.421085e-014  3.000000e+001
      vertex  0.000000e+000  3.000000e+001  0.000000e+000
    endloop
  endfacet
  facet normal -1.000000e+000  0.000000e+000  0.000000e+000
    outer loop
      vertex  0.000000e+000  3.000000e+001  0.000000e+000
      vertex  0.000000e+000  1.421085e-014  3.000000e+001
      vertex  0.000000e+000  3.000000e+001  3.000000e+001
    endloop
  endfacet
  facet normal  1.000000e+000  0.000000e+000  0.000000e+000
    outer loop
      vertex  5.500000e+000  2.500000e+001  3.000000e+001
      vertex  5.500000e+000  2.500000e+001  2.850000e+001
      vertex  5.500000e+000  3.000000e+001  3.000000e+001
    endloop
  endfacet
  facet normal  1.000000e+000  0.000000e+000  0.000000e+000
    outer loop
      vertex  5.500000e+000  3.000000e+001  3.000000e+001
      vertex  5.500000e+000  2.500000e+001  2.850000e+001
      vertex  5.500000e+000  2.850000e+001  2.850000e+001
    endloop
  endfacet
  facet normal  1.000000e+000  -0.000000e+000  0.000000e+000
    outer loop
      vertex  5.500000e+000  3.000000e+001  3.000000e+001
      vertex  5.500000e+000  2.850000e+001  2.850000e+001
      vertex  5.500000e+000  3.000000e+001  2.500000e+001
    endloop
  endfacet
  facet normal  1.000000e+000  0.000000e+000  0.000000e+000
    outer loop
      vertex  5.500000e+000  3.000000e+001  2.500000e+001
      vertex  5.500000e+000  2.850000e+001  2.850000e+001
      vertex  5.500000e+000  2.850000e+001  2.500000e+001
    endloop
  endfacet
  facet normal  1.000000e+000  0.000000e+000  0.000000e+000
    outer loop
      vertex  5.500000e+000  0.000000e+000  2.500000e+001
      vertex  5.500000e+000  1.500000e+000  2.500000e+001
      vertex  5.500000e+000  0.000000e+000  3.000000e+001
    endloop
  endfacet
  facet normal  1.000000e+000  0.000000e+000  0.000000e+000
    outer loop
      vertex  5.500000e+000  0.000000e+000  3.000000e+001
      vertex  5.500000e+000  1.500000e+000  2.500000e+001
      vertex  5.500000e+000  1.500000e+000  2.850000e+001
    endloop
  endfacet
  facet normal  1.000000e+000  0.000000e+000  -0.000000e+000
    outer loop
      vertex  5.500000e+000  0.000000e+000  3.000000e+001
      vertex  5.500000e+000  1.500000e+000  2.850000e+001
      vertex  5.500000e+000  5.000000e+000  3.000000e+001
    endloop
  endfacet
  facet normal  1.000000e+000  0.000000e+000  0.000000e+000
    outer loop
      vertex  5.500000e+000  5.000000e+000  3.000000e+001
      vertex  5.500000e+000  1.500000e+000  2.850000e+001
      vertex  5.500000e+000  5.000000e+000  2.850000e+001
    endloop
  endfacet
  facet normal  1.000000e+000  -0.000000e+000  0.000000e+000
    outer loop
      vertex  5.500000e+000  3.000000e+001  5.000000e+000
      vertex  5.500000e+000  2.850000e+001  5.000000e+000
      vertex  5.500000e+000  3.000000e+001  0.000000e+000
    endloop
  endfacet
  facet normal  1.000000e+000  0.000000e+000  0.000000e+000
    outer loop
      vertex  5.500000e+000  3.000000e+001  0.000000e+000
      vertex  5.500000e+000  2.850000e+001  5.000000e+000
      vertex  5.500000e+000  2.850000e+001  1.500000e+000
    endloop
  endfacet
  facet normal  1.000000e+000  0.000000e+000  0.000000e+000
    outer loop
      vertex  5.500000e+000  3.000000e+001  0.000000e+000
      vertex  5.500000e+000  2.850000e+001  1.500000e+000
      vertex  5.500000e+000  2.500000e+001  0.000000e+000
    endloop
  endfacet
  facet normal  1.000000e+000  0.000000e+000  0.000000e+000
    outer loop
      vertex  5.500000e+000  2.500000e+001  0.000000e+000
      vertex  5.500000e+000  2.850000e+001  1.500000e+000
      vertex  5.500000e+000  2.500000e+001  1.500000e+000
    endloop
  endfacet
  facet normal  1.000000e+000  -0.000000e+000  0.000000e+000
    outer loop
      vertex  5.500000e+000  1.500000e+000  5.000000e+000
      vertex  5.500000e+000  6.661338e-016  5.000000e+000
      vertex  5.500000e+000  1.500000e+000  1.500000e+000
    endloop
  endfacet
  facet normal  1.000000e+000  0.000000e+000  0.000000e+000
    outer loop
      vertex  5.500000e+000  1.500000e+000  1.500000e+000
      vertex  5.500000e+000  6.661338e-016  5.000000e+000
      vertex  5.500000e+000  0.000000e+000  0.000000e+000
    endloop
  endfacet
  facet normal  1.000000e+000  0.000000e+000  0.000000e+000
    outer loop
      vertex  5.500000e+000  1.500000e+000  1.500000e+000
      vertex  5.500000e+000  0.000000e+000  0.000000e+000
      vertex  5.500000e+000  5.000000e+000  1.500000e+000
    endloop
  endfacet
  facet normal  1.000000e+000  0.000000e+000  0.000000e+000
    outer loop
      vertex  5.500000e+000  5.000000e+000  1.500000e+000
      vertex  5.500000e+000  0.000000e+000  0.000000e+000
      vertex  5.500000e+000  5.000000e+000  0.000000e+000
    endloop
  endfacet
  facet normal  0.000000e+000  0.000000e+000 -9.999999e-001
    outer loop
      vertex  5.500000e+000  3.000000e+001  0.000000e+000
      vertex  5.500000e+000  2.500000e+001  0.000000e+000
      vertex  0.000000e+000  3.000000e+001  0.000000e+000
    endloop
  endfacet
  facet normal  0.000000e+000  0.000000e+000 -1.000000e+000
    outer loop
      vertex  0.000000e+000  3.000000e+001  0.000000e+000
      vertex  5.500000e+000  2.500000e+001  0.000000e+000
      vertex  2.000000e+000  2.500000e+001  0.000000e+000
    endloop
  endfacet
  facet normal  -0.000000e+000  0.000000e+000 -1.000000e+000
    outer loop
      vertex  0.000000e+000  3.000000e+001  0.000000e+000
      vertex  2.000000e+000  2.500000e+001  0.000000e+000
      vertex  0.000000e+000  0.000000e+000  0.000000e+000
    endloop
  endfacet
  facet normal  0.000000e+000  0.000000e+000 -1.000000e+000
    outer loop
      vertex  0.000000e+000  0.000000e+000  0.000000e+000
      vertex  2.000000e+000  2.500000e+001  0.000000e+000
      vertex  2.000000e+000  5.000000e+000  0.000000e+000
    endloop
  endfacet
  facet normal  0.000000e+000  -0.000000e+000 -9.999999e-001
    outer loop
      vertex  0.000000e+000  0.000000e+000  0.000000e+000
      vertex  2.000000e+000  5.000000e+000  0.000000e+000
      vertex  5.500000e+000  0.000000e+000  0.000000e+000
    endloop
  endfacet
  facet normal  0.000000e+000  0.000000e+000 -1.000000e+000
    outer loop
      vertex  5.500000e+000  0.000000e+000  0.000000e+000
      vertex  2.000000e+000  5.000000e+000  0.000000e+000
      vertex  5.500000e+000  5.000000e+000  0.000000e+000
    endloop
  endfacet
  facet normal  0.000000e+000 -9.999999e-001  1.332268e-016
    outer loop
      vertex  5.500000e+000  0.000000e+000  0.000000e+000
      vertex  5.500000e+000  6.661338e-016  5.000000e+000
      vertex  0.000000e+000  0.000000e+000  0.000000e+000
    endloop
  endfacet
  facet normal  1.903239e-016 -1.000000e+000 -7.612958e-017
    outer loop
      vertex  0.000000e+000  0.000000e+000  0.000000e+000
      vertex  5.500000e+000  6.661338e-016  5.000000e+000
      vertex  2.000000e+000  0.000000e+000  5.000000e+000
    endloop
  endfacet
  facet normal -1.184238e-015 -1.000000e+000  4.736952e-016
    outer loop
      vertex  0.000000e+000  0.000000e+000  0.000000e+000
      vertex  2.000000e+000  0.000000e+000  5.000000e+000
      vertex  0.000000e+000  1.421085e-014  3.000000e+001
    endloop
  endfacet
  facet normal -7.105427e-015 -1.000000e+000  0.000000e+000
    outer loop
      vertex  0.000000e+000  1.421085e-014  3.000000e+001
      vertex  2.000000e+000  0.000000e+000  5.000000e+000
      vertex  2.000000e+000  0.000000e+000  2.500000e+001
    endloop
  endfacet
  facet normal -2.583792e-015 -9.999999e-001  1.808654e-015
    outer loop
      vertex  0.000000e+000  1.421085e-014  3.000000e+001
      vertex  2.000000e+000  0.000000e+000  2.500000e+001
      vertex  5.500000e+000  0.000000e+000  3.000000e+001
    endloop
  endfacet
  facet normal  0.000000e+000 -1.000000e+000  -0.000000e+000
    outer loop
      vertex  5.500000e+000  0.000000e+000  3.000000e+001
      vertex  2.000000e+000  0.000000e+000  2.500000e+001
      vertex  5.500000e+000  0.000000e+000  2.500000e+001
    endloop
  endfacet
  facet normal  0.000000e+000  9.999999e-001  -0.000000e+000
    outer loop
      vertex  5.500000e+000  3.000000e+001  3.000000e+001
      vertex  5.500000e+000  3.000000e+001  2.500000e+001
      vertex  0.000000e+000  3.000000e+001  3.000000e+001
    endloop
  endfacet
  facet normal  0.000000e+000  1.000000e+000  0.000000e+000
    outer loop
      vertex  0.000000e+000  3.000000e+001  3.000000e+001
      vertex  5.500000e+000  3.000000e+001  2.500000e+001
      vertex  2.000000e+000  3.000000e+001  2.500000e+001
    endloop
  endfacet
  facet normal  0.000000e+000  1.000000e+000  0.000000e+000
    outer loop
      vertex  0.000000e+000  3.000000e+001  3.000000e+001
      vertex  2.000000e+000  3.000000e+001  2.500000e+001
      vertex  0.000000e+000  3.000000e+001  0.000000e+000
    endloop
  endfacet
  facet normal  0.000000e+000  1.000000e+000  0.000000e+000
    outer loop
      vertex  0.000000e+000  3.000000e+001  0.000000e+000
      vertex  2.000000e+000  3.000000e+001  2.500000e+001
      vertex  2.000000e+000  3.000000e+001  5.000000e+000
    endloop
  endfacet
  facet normal  0.000000e+000  9.999999e-001  0.000000e+000
    outer loop
      vertex  0.000000e+000  3.000000e+001  0.000000e+000
      vertex  2.000000e+000  3.000000e+001  5.000000e+000
      vertex  5.500000e+000  3.000000e+001  0.000000e+000
    endloop
  endfacet
  facet normal  0.000000e+000  1.000000e+000  -0.000000e+000
    outer loop
      vertex  5.500000e+000  3.000000e+001  0.000000e+000
      vertex  2.000000e+000  3.000000e+001  5.000000e+000
      vertex  5.500000e+000  3.000000e+001  5.000000e+000
    endloop
  endfacet
  facet normal  0.000000e+000  0.000000e+000  9.999999e-001
    outer loop
      vertex  5.500000e+000  0.000000e+000  3.000000e+001
      vertex  5.500000e+000  5.000000e+000  3.000000e+001
      vertex  0.000000e+000  1.421085e-014  3.000000e+001
    endloop
  endfacet
  facet normal  0.000000e+000  0.000000e+000  1.000000e+000
    outer loop
      vertex  0.000000e+000  1.421085e-014  3.000000e+001
      vertex  5.500000e+000  5.000000e+000  3.000000e+001
      vertex  2.000000e+000  5.000000e+000  3.000000e+001
    endloop
  endfacet
  facet normal  0.000000e+000  0.000000e+000  1.000000e+000
    outer loop
      vertex  0.000000e+000  1.421085e-014  3.000000e+001
      vertex  2.000000e+000  5.000000e+000  3.000000e+001
      vertex  0.000000e+000  3.000000e+001  3.000000e+001
    endloop
  endfacet
  facet normal  0.000000e+000  0.000000e+000  1.000000e+000
    outer loop
      vertex  0.000000e+000  3.000000e+001  3.000000e+001
      vertex  2.000000e+000  5.000000e+000  3.000000e+001
      vertex  2.000000e+000  2.500000e+001  3.000000e+001
    endloop
  endfacet
  facet normal  0.000000e+000  -0.000000e+000  9.999999e-001
    outer loop
      vertex  0.000000e+000  3.000000e+001  3.000000e+001
      vertex  2.000000e+000  2.500000e+001  3.000000e+001
      vertex  5.500000e+000  3.000000e+001  3.000000e+001
    endloop
  endfacet
  facet normal  0.000000e+000  0.000000e+000  1.000000e+000
    outer loop
      vertex  5.500000e+000  3.000000e+001  3.000000e+001
      vertex  2.000000e+000  2.500000e+001  3.000000e+001
      vertex  5.500000e+000  2.500000e+001  3.000000e+001
    endloop
  endfacet
  facet normal  0.000000e+000 -1.000000e+000  0.000000e+000
    outer loop
      vertex  5.500000e+000  2.500000e+001  3.000000e+001
      vertex  2.000000e+000  2.500000e+001  3.000000e+001
      vertex  5.500000e+000  2.500000e+001  2.850000e+001
    endloop
  endfacet
  facet normal  0.000000e+000 -1.000000e+000  0.000000e+000
    outer loop
      vertex  5.500000e+000  2.500000e+001  2.850000e+001
      vertex  2.000000e+000  2.500000e+001  3.000000e+001
      vertex  2.000000e+000  2.500000e+001  2.850000e+001
    endloop
  endfacet
  facet normal  0.000000e+000  0.000000e+000 -1.000000e+000
    outer loop
      vertex  5.500000e+000  3.000000e+001  2.500000e+001
      vertex  5.500000e+000  2.850000e+001  2.500000e+001
      vertex  2.000000e+000  3.000000e+001  2.500000e+001
    endloop
  endfacet
  facet normal  0.000000e+000  0.000000e+000 -1.000000e+000
    outer loop
      vertex  2.000000e+000  3.000000e+001  2.500000e+001
      vertex  5.500000e+000  2.850000e+001  2.500000e+001
      vertex  2.000000e+000  2.850000e+001  2.500000e+001
    endloop
  endfacet
  facet normal  0.000000e+000  1.000000e+000  0.000000e+000
    outer loop
      vertex  5.500000e+000  5.000000e+000  2.850000e+001
      vertex  2.000000e+000  5.000000e+000  2.850000e+001
      vertex  5.500000e+000  5.000000e+000  3.000000e+001
    endloop
  endfacet
  facet normal  0.000000e+000  1.000000e+000  0.000000e+000
    outer loop
      vertex  5.500000e+000  5.000000e+000  3.000000e+001
      vertex  2.000000e+000  5.000000e+000  2.850000e+001
      vertex  2.000000e+000  5.000000e+000  3.000000e+001
    endloop
  endfacet
  facet normal  0.000000e+000  0.000000e+000 -1.000000e+000
    outer loop
      vertex  5.500000e+000  1.500000e+000  2.500000e+001
      vertex  5.500000e+000  0.000000e+000  2.500000e+001
      vertex  2.000000e+000  1.500000e+000  2.500000e+001
    endloop
  endfacet
  facet normal  0.000000e+000  0.000000e+000 -1.000000e+000
    outer loop
      vertex  2.000000e+000  1.500000e+000  2.500000e+001
      vertex  5.500000e+000  0.000000e+000  2.500000e+001
      vertex  2.000000e+000  0.000000e+000  2.500000e+001
    endloop
  endfacet
  facet normal  0.000000e+000 -1.000000e+000  0.000000e+000
    outer loop
      vertex  5.500000e+000  2.500000e+001  1.500000e+000
      vertex  2.000000e+000  2.500000e+001  1.500000e+000
      vertex  5.500000e+000  2.500000e+001  0.000000e+000
    endloop
  endfacet
  facet normal  0.000000e+000 -1.000000e+000  0.000000e+000
    outer loop
      vertex  5.500000e+000  2.500000e+001  0.000000e+000
      vertex  2.000000e+000  2.500000e+001  1.500000e+000
      vertex  2.000000e+000  2.500000e+001  0.000000e+000
    endloop
  endfacet
  facet normal  -0.000000e+000  0.000000e+000  1.000000e+000
    outer loop
      vertex  5.500000e+000  3.000000e+001  5.000000e+000
      vertex  2.000000e+000  3.000000e+001  5.000000e+000
      vertex  5.500000e+000  2.850000e+001  5.000000e+000
    endloop
  endfacet
  facet normal  0.000000e+000  0.000000e+000  1.000000e+000
    outer loop
      vertex  5.500000e+000  2.850000e+001  5.000000e+000
      vertex  2.000000e+000  3.000000e+001  5.000000e+000
      vertex  2.000000e+000  2.850000e+001  5.000000e+000
    endloop
  endfacet
  facet normal  -0.000000e+000  0.000000e+000  1.000000e+000
    outer loop
      vertex  5.500000e+000  1.500000e+000  5.000000e+000
      vertex  2.000000e+000  1.500000e+000  5.000000e+000
      vertex  5.500000e+000  6.661338e-016  5.000000e+000
    endloop
  endfacet
  facet normal  0.000000e+000  0.000000e+000  1.000000e+000
    outer loop
      vertex  5.500000e+000  6.661338e-016  5.000000e+000
      vertex  2.000000e+000  1.500000e+000  5.000000e+000
      vertex  2.000000e+000  0.000000e+000  5.000000e+000
    endloop
  endfacet
  facet normal  0.000000e+000  1.000000e+000  0.000000e+000
    outer loop
      vertex  5.500000e+000  5.000000e+000  0.000000e+000
      vertex  2.000000e+000  5.000000e+000  0.000000e+000
      vertex  5.500000e+000  5.000000e+000  1.500000e+000
    endloop
  endfacet
  facet normal  0.000000e+000  1.000000e+000  0.000000e+000
    outer loop
      vertex  5.500000e+000  5.000000e+000  1.500000e+000
      vertex  2.000000e+000  5.000000e+000  0.000000e+000
      vertex  2.000000e+000  5.000000e+000  1.500000e+000
    endloop
  endfacet
  facet normal  1.000000e+000  0.000000e+000  0.000000e+000
    outer loop
      vertex  2.000000e+000  1.500000e+000  5.000000e+000
      vertex  2.000000e+000  0.000000e+000  2.500000e+001
      vertex  2.000000e+000  0.000000e+000  5.000000e+000
    endloop
  endfacet
  facet normal  1.000000e+000  0.000000e+000  0.000000e+000
    outer loop
      vertex  2.000000e+000  2.850000e+001  2.500000e+001
      vertex  2.000000e+000  2.850000e+001  2.850000e+001
      vertex  2.000000e+000  2.500000e+001  2.850000e+001
    endloop
  endfacet
  facet normal  1.000000e+000  0.000000e+000  0.000000e+000
    outer loop
      vertex  2.000000e+000  2.850000e+001  2.500000e+001
      vertex  2.000000e+000  2.500000e+001  2.850000e+001
      vertex  2.000000e+000  5.000000e+000  2.850000e+001
    endloop
  endfacet
  facet normal  1.000000e+000  0.000000e+000  0.000000e+000
    outer loop
      vertex  2.000000e+000  2.850000e+001  2.500000e+001
      vertex  2.000000e+000  5.000000e+000  2.850000e+001
      vertex  2.000000e+000  1.500000e+000  2.850000e+001
    endloop
  endfacet
  facet normal  9.999999e-001  0.000000e+000  0.000000e+000
    outer loop
      vertex  2.000000e+000  2.850000e+001  2.500000e+001
      vertex  2.000000e+000  1.500000e+000  2.850000e+001
      vertex  2.000000e+000  1.500000e+000  2.500000e+001
    endloop
  endfacet
  facet normal  1.000000e+000  0.000000e+000  0.000000e+000
    outer loop
      vertex  2.000000e+000  3.000000e+001  5.000000e+000
      vertex  2.000000e+000  3.000000e+001  2.500000e+001
      vertex  2.000000e+000  2.850000e+001  2.500000e+001
    endloop
  endfacet
  facet normal  1.000000e+000  0.000000e+000  0.000000e+000
    outer loop
      vertex  2.000000e+000  3.000000e+001  5.000000e+000
      vertex  2.000000e+000  2.850000e+001  2.500000e+001
      vertex  2.000000e+000  1.500000e+000  2.500000e+001
    endloop
  endfacet
  facet normal  1.000000e+000  0.000000e+000  0.000000e+000
    outer loop
      vertex  2.000000e+000  3.000000e+001  5.000000e+000
      vertex  2.000000e+000  1.500000e+000  2.500000e+001
      vertex  2.000000e+000  0.000000e+000  2.500000e+001
    endloop
  endfacet
  facet normal  1.000000e+000  0.000000e+000  0.000000e+000
    outer loop
      vertex  2.000000e+000  3.000000e+001  5.000000e+000
      vertex  2.000000e+000  0.000000e+000  2.500000e+001
      vertex  2.000000e+000  2.850000e+001  5.000000e+000
    endloop
  endfacet
  facet normal  1.000000e+000  0.000000e+000  0.000000e+000
    outer loop
      vertex  2.000000e+000  2.850000e+001  5.000000e+000
      vertex  2.000000e+000  0.000000e+000  2.500000e+001
      vertex  2.000000e+000  1.500000e+000  5.000000e+000
    endloop
  endfacet
  facet normal  9.999999e-001  -0.000000e+000  0.000000e+000
    outer loop
      vertex  2.000000e+000  2.850000e+001  5.000000e+000
      vertex  2.000000e+000  1.500000e+000  5.000000e+000
      vertex  2.000000e+000  1.500000e+000  1.500000e+000
    endloop
  endfacet
  facet normal  1.000000e+000  0.000000e+000  0.000000e+000
    outer loop
      vertex  2.000000e+000  2.850000e+001  5.000000e+000
      vertex  2.000000e+000  1.500000e+000  1.500000e+000
      vertex  2.000000e+000  5.000000e+000  1.500000e+000
    endloop
  endfacet
  facet normal  1.000000e+000  0.000000e+000  0.000000e+000
    outer loop
      vertex  2.000000e+000  2.850000e+001  5.000000e+000
      vertex  2.000000e+000  5.000000e+000  1.500000e+000
      vertex  2.000000e+000  2.500000e+001  1.500000e+000
    endloop
  endfacet
  facet normal  1.000000e+000  0.000000e+000  0.000000e+000
    outer loop
      vertex  2.000000e+000  2.850000e+001  5.000000e+000
      vertex  2.000000e+000  2.500000e+001  1.500000e+000
      vertex  2.000000e+000  2.850000e+001  1.500000e+000
    endloop
  endfacet
  facet normal  1.000000e+000  0.000000e+000  0.000000e+000
    outer loop
      vertex  2.000000e+000  5.000000e+000  2.850000e+001
      vertex  2.000000e+000  2.500000e+001  2.850000e+001
      vertex  2.000000e+000  5.000000e+000  3.000000e+001
    endloop
  endfacet
  facet normal  1.000000e+000  -0.000000e+000  0.000000e+000
    outer loop
      vertex  2.000000e+000  5.000000e+000  3.000000e+001
      vertex  2.000000e+000  2.500000e+001  2.850000e+001
      vertex  2.000000e+000  2.500000e+001  3.000000e+001
    endloop
  endfacet
  facet normal  1.000000e+000  0.000000e+000  0.000000e+000
    outer loop
      vertex  2.000000e+000  5.000000e+000  0.000000e+000
      vertex  2.000000e+000  2.500000e+001  0.000000e+000
      vertex  2.000000e+000  5.000000e+000  1.500000e+000
    endloop
  endfacet
  facet normal  1.000000e+000  -0.000000e+000  0.000000e+000
    outer loop
      vertex  2.000000e+000  5.000000e+000  1.500000e+000
      vertex  2.000000e+000  2.500000e+001  0.000000e+000
      vertex  2.000000e+000  2.500000e+001  1.500000e+000
    endloop
  endfacet
  facet normal  -0.000000e+000  0.000000e+000  1.000000e+000
    outer loop
      vertex  5.500000e+000  2.850000e+001  1.500000e+000
      vertex  2.000000e+000  2.850000e+001  1.500000e+000
      vertex  5.500000e+000  2.500000e+001  1.500000e+000
    endloop
  endfacet
  facet normal  0.000000e+000  0.000000e+000  1.000000e+000
    outer loop
      vertex  5.500000e+000  2.500000e+001  1.500000e+000
      vertex  2.000000e+000  2.850000e+001  1.500000e+000
      vertex  2.000000e+000  2.500000e+001  1.500000e+000
    endloop
  endfacet
  facet normal  0.000000e+000 -1.000000e+000  0.000000e+000
    outer loop
      vertex  5.500000e+000  2.850000e+001  5.000000e+000
      vertex  2.000000e+000  2.850000e+001  5.000000e+000
      vertex  5.500000e+000  2.850000e+001  1.500000e+000
    endloop
  endfacet
  facet normal  0.000000e+000 -1.000000e+000  0.000000e+000
    outer loop
      vertex  5.500000e+000  2.850000e+001  1.500000e+000
      vertex  2.000000e+000  2.850000e+001  5.000000e+000
      vertex  2.000000e+000  2.850000e+001  1.500000e+000
    endloop
  endfacet
  facet normal  0.000000e+000 -1.000000e+000  0.000000e+000
    outer loop
      vertex  5.500000e+000  2.850000e+001  2.850000e+001
      vertex  2.000000e+000  2.850000e+001  2.850000e+001
      vertex  5.500000e+000  2.850000e+001  2.500000e+001
    endloop
  endfacet
  facet normal  0.000000e+000 -1.000000e+000  0.000000e+000
    outer loop
      vertex  5.500000e+000  2.850000e+001  2.500000e+001
      vertex  2.000000e+000  2.850000e+001  2.850000e+001
      vertex  2.000000e+000  2.850000e+001  2.500000e+001
    endloop
  endfacet
  facet normal  0.000000e+000  0.000000e+000 -1.000000e+000
    outer loop
      vertex  5.500000e+000  2.850000e+001  2.850000e+001
      vertex  5.500000e+000  2.500000e+001  2.850000e+001
      vertex  2.000000e+000  2.850000e+001  2.850000e+001
    endloop
  endfacet
  facet normal  0.000000e+000  0.000000e+000 -1.000000e+000
    outer loop
      vertex  2.000000e+000  2.850000e+001  2.850000e+001
      vertex  5.500000e+000  2.500000e+001  2.850000e+001
      vertex  2.000000e+000  2.500000e+001  2.850000e+001
    endloop
  endfacet
  facet normal  0.000000e+000  0.000000e+000 -1.000000e+000
    outer loop
      vertex  5.500000e+000  5.000000e+000  2.850000e+001
      vertex  5.500000e+000  1.500000e+000  2.850000e+001
      vertex  2.000000e+000  5.000000e+000  2.850000e+001
    endloop
  endfacet
  facet normal  0.000000e+000  0.000000e+000 -1.000000e+000
    outer loop
      vertex  2.000000e+000  5.000000e+000  2.850000e+001
      vertex  5.500000e+000  1.500000e+000  2.850000e+001
      vertex  2.000000e+000  1.500000e+000  2.850000e+001
    endloop
  endfacet
  facet normal  0.000000e+000  1.000000e+000  0.000000e+000
    outer loop
      vertex  5.500000e+000  1.500000e+000  2.500000e+001
      vertex  2.000000e+000  1.500000e+000  2.500000e+001
      vertex  5.500000e+000  1.500000e+000  2.850000e+001
    endloop
  endfacet
  facet normal  0.000000e+000  1.000000e+000  0.000000e+000
    outer loop
      vertex  5.500000e+000  1.500000e+000  2.850000e+001
      vertex  2.000000e+000  1.500000e+000  2.500000e+001
      vertex  2.000000e+000  1.500000e+000  2.850000e+001
    endloop
  endfacet
  facet normal  0.000000e+000  1.000000e+000  0.000000e+000
    outer loop
      vertex  5.500000e+000  1.500000e+000  1.500000e+000
      vertex  2.000000e+000  1.500000e+000  1.500000e+000
      vertex  5.500000e+000  1.500000e+000  5.000000e+000
    endloop
  endfacet
  facet normal  0.000000e+000  1.000000e+000  0.000000e+000
    outer loop
      vertex  5.500000e+000  1.500000e+000  5.000000e+000
      vertex  2.000000e+000  1.500000e+000  1.500000e+000
      vertex  2.000000e+000  1.500000e+000  5.000000e+000
    endloop
  endfacet
  facet normal  -0.000000e+000  0.000000e+000  1.000000e+000
    outer loop
      vertex  5.500000e+000  5.000000e+000  1.500000e+000
      vertex  2.000000e+000  5.000000e+000  1.500000e+000
      vertex  5.500000e+000  1.500000e+000  1.500000e+000
    endloop
  endfacet
  facet normal  0.000000e+000  0.000000e+000  1.000000e+000
    outer loop
      vertex  5.500000e+000  1.500000e+000  1.500000e+000
      vertex  2.000000e+000  5.000000e+000  1.500000e+000
      vertex  2.000000e+000  1.500000e+000  1.500000e+000
    endloop
  endfacet
endsolid CATIA STL
