solid CATIA STL
  facet normal  0.000000e+000  0.000000e+000  1.000000e+000
    outer loop
      vertex  0.000000e+000  0.000000e+000  2.000000e+000
      vertex  3.100000e+001  0.000000e+000  2.000000e+000
      vertex  2.821347e+001  1.515268e+000  2.000000e+000
    endloop
  endfacet
  facet normal  0.000000e+000  0.000000e+000  1.000000e+000
    outer loop
      vertex  0.000000e+000  0.000000e+000  2.000000e+000
      vertex  2.821347e+001  1.515268e+000  2.000000e+000
      vertex  2.778653e+001  1.515268e+000  2.000000e+000
    endloop
  endfacet
  facet normal  0.000000e+000  0.000000e+000  1.000000e+000
    outer loop
      vertex  0.000000e+000  0.000000e+000  2.000000e+000
      vertex  2.778653e+001  1.515268e+000  2.000000e+000
      vertex  3.213472e+000  1.515268e+000  2.000000e+000
    endloop
  endfacet
  facet normal  0.000000e+000  0.000000e+000  1.000000e+000
    outer loop
      vertex  0.000000e+000  0.000000e+000  2.000000e+000
      vertex  3.213472e+000  1.515268e+000  2.000000e+000
      vertex  2.786528e+000  1.515268e+000  2.000000e+000
    endloop
  endfacet
  facet normal  0.000000e+000  0.000000e+000  1.000000e+000
    outer loop
      vertex  0.000000e+000  0.000000e+000  2.000000e+000
      vertex  2.786528e+000  1.515268e+000  2.000000e+000
      vertex  2.376878e+000  1.635552e+000  2.000000e+000
    endloop
  endfacet
  facet normal  0.000000e+000  0.000000e+000  1.000000e+000
    outer loop
      vertex  0.000000e+000  0.000000e+000  2.000000e+000
      vertex  2.376878e+000  1.635552e+000  2.000000e+000
      vertex  2.017709e+000  1.866376e+000  2.000000e+000
    endloop
  endfacet
  facet normal  0.000000e+000  0.000000e+000  9.999999e-001
    outer loop
      vertex  0.000000e+000  0.000000e+000  2.000000e+000
      vertex  2.017709e+000  1.866376e+000  2.000000e+000
      vertex  1.738120e+000  2.189039e+000  2.000000e+000
    endloop
  endfacet
  facet normal  0.000000e+000  0.000000e+000  1.000000e+000
    outer loop
      vertex  0.000000e+000  0.000000e+000  2.000000e+000
      vertex  1.738120e+000  2.189039e+000  2.000000e+000
      vertex  1.560760e+000  2.577401e+000  2.000000e+000
    endloop
  endfacet
  facet normal  0.000000e+000  0.000000e+000  1.000000e+000
    outer loop
      vertex  0.000000e+000  0.000000e+000  2.000000e+000
      vertex  1.560760e+000  2.577401e+000  2.000000e+000
      vertex  1.500000e+000  3.000000e+000  2.000000e+000
    endloop
  endfacet
  facet normal  0.000000e+000  -0.000000e+000  1.000000e+000
    outer loop
      vertex  0.000000e+000  0.000000e+000  2.000000e+000
      vertex  1.500000e+000  3.000000e+000  2.000000e+000
      vertex  1.560760e+000  3.422599e+000  2.000000e+000
    endloop
  endfacet
  facet normal  0.000000e+000  0.000000e+000  1.000000e+000
    outer loop
      vertex  0.000000e+000  6.000000e+000  2.000000e+000
      vertex  0.000000e+000  0.000000e+000  2.000000e+000
      vertex  1.560760e+000  3.422599e+000  2.000000e+000
    endloop
  endfacet
  facet normal  0.000000e+000  -0.000000e+000  1.000000e+000
    outer loop
      vertex  0.000000e+000  6.000000e+000  2.000000e+000
      vertex  1.560760e+000  3.422599e+000  2.000000e+000
      vertex  1.738120e+000  3.810961e+000  2.000000e+000
    endloop
  endfacet
  facet normal  0.000000e+000  -0.000000e+000  1.000000e+000
    outer loop
      vertex  0.000000e+000  6.000000e+000  2.000000e+000
      vertex  1.738120e+000  3.810961e+000  2.000000e+000
      vertex  2.017709e+000  4.133625e+000  2.000000e+000
    endloop
  endfacet
  facet normal  0.000000e+000  -0.000000e+000  1.000000e+000
    outer loop
      vertex  0.000000e+000  6.000000e+000  2.000000e+000
      vertex  2.017709e+000  4.133625e+000  2.000000e+000
      vertex  2.376878e+000  4.364448e+000  2.000000e+000
    endloop
  endfacet
  facet normal  0.000000e+000  -0.000000e+000  1.000000e+000
    outer loop
      vertex  0.000000e+000  6.000000e+000  2.000000e+000
      vertex  2.376878e+000  4.364448e+000  2.000000e+000
      vertex  2.786528e+000  4.484732e+000  2.000000e+000
    endloop
  endfacet
  facet normal  0.000000e+000  -0.000000e+000  1.000000e+000
    outer loop
      vertex  0.000000e+000  6.000000e+000  2.000000e+000
      vertex  2.786528e+000  4.484732e+000  2.000000e+000
      vertex  3.213472e+000  4.484732e+000  2.000000e+000
    endloop
  endfacet
  facet normal  0.000000e+000  -0.000000e+000  1.000000e+000
    outer loop
      vertex  0.000000e+000  6.000000e+000  2.000000e+000
      vertex  3.213472e+000  4.484732e+000  2.000000e+000
      vertex  2.778653e+001  4.484732e+000  2.000000e+000
    endloop
  endfacet
  facet normal  0.000000e+000  -0.000000e+000  1.000000e+000
    outer loop
      vertex  0.000000e+000  6.000000e+000  2.000000e+000
      vertex  2.778653e+001  4.484732e+000  2.000000e+000
      vertex  2.821347e+001  4.484732e+000  2.000000e+000
    endloop
  endfacet
  facet normal  0.000000e+000  -0.000000e+000  1.000000e+000
    outer loop
      vertex  0.000000e+000  6.000000e+000  2.000000e+000
      vertex  2.821347e+001  4.484732e+000  2.000000e+000
      vertex  3.100000e+001  6.000000e+000  2.000000e+000
    endloop
  endfacet
  facet normal  0.000000e+000  0.000000e+000  1.000000e+000
    outer loop
      vertex  3.100000e+001  0.000000e+000  2.000000e+000
      vertex  2.943924e+001  3.422599e+000  2.000000e+000
      vertex  2.950000e+001  3.000000e+000  2.000000e+000
    endloop
  endfacet
  facet normal  0.000000e+000  0.000000e+000  1.000000e+000
    outer loop
      vertex  3.100000e+001  0.000000e+000  2.000000e+000
      vertex  2.950000e+001  3.000000e+000  2.000000e+000
      vertex  2.943924e+001  2.577401e+000  2.000000e+000
    endloop
  endfacet
  facet normal  0.000000e+000  0.000000e+000  1.000000e+000
    outer loop
      vertex  3.100000e+001  0.000000e+000  2.000000e+000
      vertex  2.943924e+001  2.577401e+000  2.000000e+000
      vertex  2.926188e+001  2.189039e+000  2.000000e+000
    endloop
  endfacet
  facet normal  0.000000e+000  0.000000e+000  1.000000e+000
    outer loop
      vertex  3.100000e+001  0.000000e+000  2.000000e+000
      vertex  2.926188e+001  2.189039e+000  2.000000e+000
      vertex  2.898229e+001  1.866376e+000  2.000000e+000
    endloop
  endfacet
  facet normal  0.000000e+000  0.000000e+000  1.000000e+000
    outer loop
      vertex  3.100000e+001  0.000000e+000  2.000000e+000
      vertex  2.898229e+001  1.866376e+000  2.000000e+000
      vertex  2.862312e+001  1.635552e+000  2.000000e+000
    endloop
  endfacet
  facet normal  0.000000e+000  0.000000e+000  1.000000e+000
    outer loop
      vertex  3.100000e+001  0.000000e+000  2.000000e+000
      vertex  2.862312e+001  1.635552e+000  2.000000e+000
      vertex  2.821347e+001  1.515268e+000  2.000000e+000
    endloop
  endfacet
  facet normal  -0.000000e+000  0.000000e+000  1.000000e+000
    outer loop
      vertex  3.100000e+001  6.000000e+000  2.000000e+000
      vertex  2.821347e+001  4.484732e+000  2.000000e+000
      vertex  2.862312e+001  4.364448e+000  2.000000e+000
    endloop
  endfacet
  facet normal  -0.000000e+000  0.000000e+000  1.000000e+000
    outer loop
      vertex  3.100000e+001  6.000000e+000  2.000000e+000
      vertex  2.862312e+001  4.364448e+000  2.000000e+000
      vertex  2.898229e+001  4.133625e+000  2.000000e+000
    endloop
  endfacet
  facet normal  -0.000000e+000  0.000000e+000  1.000000e+000
    outer loop
      vertex  3.100000e+001  6.000000e+000  2.000000e+000
      vertex  2.898229e+001  4.133625e+000  2.000000e+000
      vertex  2.926188e+001  3.810961e+000  2.000000e+000
    endloop
  endfacet
  facet normal  -0.000000e+000  0.000000e+000  1.000000e+000
    outer loop
      vertex  3.100000e+001  6.000000e+000  2.000000e+000
      vertex  2.926188e+001  3.810961e+000  2.000000e+000
      vertex  2.943924e+001  3.422599e+000  2.000000e+000
    endloop
  endfacet
  facet normal  -0.000000e+000  0.000000e+000  1.000000e+000
    outer loop
      vertex  3.100000e+001  6.000000e+000  2.000000e+000
      vertex  2.943924e+001  3.422599e+000  2.000000e+000
      vertex  3.100000e+001  0.000000e+000  2.000000e+000
    endloop
  endfacet
  facet normal  -0.000000e+000  0.000000e+000  1.000000e+000
    outer loop
      vertex  2.778653e+001  4.484732e+000  2.000000e+000
      vertex  3.213472e+000  4.484732e+000  2.000000e+000
      vertex  2.737688e+001  4.364448e+000  2.000000e+000
    endloop
  endfacet
  facet normal  0.000000e+000  0.000000e+000  1.000000e+000
    outer loop
      vertex  2.737688e+001  4.364448e+000  2.000000e+000
      vertex  3.213472e+000  4.484732e+000  2.000000e+000
      vertex  3.623122e+000  4.364448e+000  2.000000e+000
    endloop
  endfacet
  facet normal  -0.000000e+000  0.000000e+000  1.000000e+000
    outer loop
      vertex  2.737688e+001  4.364448e+000  2.000000e+000
      vertex  3.623122e+000  4.364448e+000  2.000000e+000
      vertex  2.701771e+001  4.133625e+000  2.000000e+000
    endloop
  endfacet
  facet normal  0.000000e+000  0.000000e+000  9.999999e-001
    outer loop
      vertex  2.701771e+001  4.133625e+000  2.000000e+000
      vertex  3.623122e+000  4.364448e+000  2.000000e+000
      vertex  3.982291e+000  4.133625e+000  2.000000e+000
    endloop
  endfacet
  facet normal  -0.000000e+000  0.000000e+000  9.999999e-001
    outer loop
      vertex  2.701771e+001  4.133625e+000  2.000000e+000
      vertex  3.982291e+000  4.133625e+000  2.000000e+000
      vertex  2.673812e+001  3.810961e+000  2.000000e+000
    endloop
  endfacet
  facet normal  0.000000e+000  0.000000e+000  1.000000e+000
    outer loop
      vertex  2.673812e+001  3.810961e+000  2.000000e+000
      vertex  3.982291e+000  4.133625e+000  2.000000e+000
      vertex  4.261880e+000  3.810961e+000  2.000000e+000
    endloop
  endfacet
  facet normal  -0.000000e+000  0.000000e+000  1.000000e+000
    outer loop
      vertex  2.673812e+001  3.810961e+000  2.000000e+000
      vertex  4.261880e+000  3.810961e+000  2.000000e+000
      vertex  2.656076e+001  3.422599e+000  2.000000e+000
    endloop
  endfacet
  facet normal  0.000000e+000  0.000000e+000  1.000000e+000
    outer loop
      vertex  2.656076e+001  3.422599e+000  2.000000e+000
      vertex  4.261880e+000  3.810961e+000  2.000000e+000
      vertex  4.439240e+000  3.422599e+000  2.000000e+000
    endloop
  endfacet
  facet normal  -0.000000e+000  0.000000e+000  1.000000e+000
    outer loop
      vertex  2.656076e+001  3.422599e+000  2.000000e+000
      vertex  4.439240e+000  3.422599e+000  2.000000e+000
      vertex  2.650000e+001  3.000000e+000  2.000000e+000
    endloop
  endfacet
  facet normal  0.000000e+000  0.000000e+000  1.000000e+000
    outer loop
      vertex  2.650000e+001  3.000000e+000  2.000000e+000
      vertex  4.439240e+000  3.422599e+000  2.000000e+000
      vertex  4.500000e+000  3.000000e+000  2.000000e+000
    endloop
  endfacet
  facet normal  -0.000000e+000  0.000000e+000  1.000000e+000
    outer loop
      vertex  2.650000e+001  3.000000e+000  2.000000e+000
      vertex  4.500000e+000  3.000000e+000  2.000000e+000
      vertex  2.656076e+001  2.577401e+000  2.000000e+000
    endloop
  endfacet
  facet normal  0.000000e+000  0.000000e+000  1.000000e+000
    outer loop
      vertex  2.656076e+001  2.577401e+000  2.000000e+000
      vertex  4.500000e+000  3.000000e+000  2.000000e+000
      vertex  4.439240e+000  2.577401e+000  2.000000e+000
    endloop
  endfacet
  facet normal  -0.000000e+000  0.000000e+000  1.000000e+000
    outer loop
      vertex  2.656076e+001  2.577401e+000  2.000000e+000
      vertex  4.439240e+000  2.577401e+000  2.000000e+000
      vertex  2.673812e+001  2.189039e+000  2.000000e+000
    endloop
  endfacet
  facet normal  0.000000e+000  0.000000e+000  1.000000e+000
    outer loop
      vertex  2.673812e+001  2.189039e+000  2.000000e+000
      vertex  4.439240e+000  2.577401e+000  2.000000e+000
      vertex  4.261880e+000  2.189039e+000  2.000000e+000
    endloop
  endfacet
  facet normal  -0.000000e+000  0.000000e+000  1.000000e+000
    outer loop
      vertex  2.673812e+001  2.189039e+000  2.000000e+000
      vertex  4.261880e+000  2.189039e+000  2.000000e+000
      vertex  2.701771e+001  1.866376e+000  2.000000e+000
    endloop
  endfacet
  facet normal  0.000000e+000  0.000000e+000  1.000000e+000
    outer loop
      vertex  2.701771e+001  1.866376e+000  2.000000e+000
      vertex  4.261880e+000  2.189039e+000  2.000000e+000
      vertex  3.982291e+000  1.866376e+000  2.000000e+000
    endloop
  endfacet
  facet normal  -0.000000e+000  0.000000e+000  1.000000e+000
    outer loop
      vertex  2.701771e+001  1.866376e+000  2.000000e+000
      vertex  3.982291e+000  1.866376e+000  2.000000e+000
      vertex  2.737688e+001  1.635552e+000  2.000000e+000
    endloop
  endfacet
  facet normal  0.000000e+000  0.000000e+000  1.000000e+000
    outer loop
      vertex  2.737688e+001  1.635552e+000  2.000000e+000
      vertex  3.982291e+000  1.866376e+000  2.000000e+000
      vertex  3.623122e+000  1.635552e+000  2.000000e+000
    endloop
  endfacet
  facet normal  -0.000000e+000  0.000000e+000  1.000000e+000
    outer loop
      vertex  2.737688e+001  1.635552e+000  2.000000e+000
      vertex  3.623122e+000  1.635552e+000  2.000000e+000
      vertex  2.778653e+001  1.515268e+000  2.000000e+000
    endloop
  endfacet
  facet normal  0.000000e+000  0.000000e+000  1.000000e+000
    outer loop
      vertex  2.778653e+001  1.515268e+000  2.000000e+000
      vertex  3.623122e+000  1.635552e+000  2.000000e+000
      vertex  3.213472e+000  1.515268e+000  2.000000e+000
    endloop
  endfacet
  facet normal  0.000000e+000  0.000000e+000 -1.000000e+000
    outer loop
      vertex  0.000000e+000  0.000000e+000  0.000000e+000
      vertex  1.560760e+000  3.422599e+000  0.000000e+000
      vertex  1.500000e+000  3.000000e+000  0.000000e+000
    endloop
  endfacet
  facet normal  0.000000e+000  -0.000000e+000 -1.000000e+000
    outer loop
      vertex  0.000000e+000  0.000000e+000  0.000000e+000
      vertex  1.500000e+000  3.000000e+000  0.000000e+000
      vertex  1.560760e+000  2.577401e+000  0.000000e+000
    endloop
  endfacet
  facet normal  0.000000e+000  -0.000000e+000 -1.000000e+000
    outer loop
      vertex  0.000000e+000  0.000000e+000  0.000000e+000
      vertex  1.560760e+000  2.577401e+000  0.000000e+000
      vertex  1.738120e+000  2.189039e+000  0.000000e+000
    endloop
  endfacet
  facet normal  0.000000e+000  -0.000000e+000 -9.999999e-001
    outer loop
      vertex  0.000000e+000  0.000000e+000  0.000000e+000
      vertex  1.738120e+000  2.189039e+000  0.000000e+000
      vertex  2.017709e+000  1.866376e+000  0.000000e+000
    endloop
  endfacet
  facet normal  0.000000e+000  -0.000000e+000 -1.000000e+000
    outer loop
      vertex  0.000000e+000  0.000000e+000  0.000000e+000
      vertex  2.017709e+000  1.866376e+000  0.000000e+000
      vertex  2.376878e+000  1.635552e+000  0.000000e+000
    endloop
  endfacet
  facet normal  0.000000e+000  -0.000000e+000 -1.000000e+000
    outer loop
      vertex  0.000000e+000  0.000000e+000  0.000000e+000
      vertex  2.376878e+000  1.635552e+000  0.000000e+000
      vertex  2.786528e+000  1.515268e+000  0.000000e+000
    endloop
  endfacet
  facet normal  0.000000e+000  -0.000000e+000 -1.000000e+000
    outer loop
      vertex  0.000000e+000  0.000000e+000  0.000000e+000
      vertex  2.786528e+000  1.515268e+000  0.000000e+000
      vertex  3.213472e+000  1.515268e+000  0.000000e+000
    endloop
  endfacet
  facet normal  0.000000e+000  -0.000000e+000 -1.000000e+000
    outer loop
      vertex  0.000000e+000  0.000000e+000  0.000000e+000
      vertex  3.213472e+000  1.515268e+000  0.000000e+000
      vertex  2.778653e+001  1.515268e+000  0.000000e+000
    endloop
  endfacet
  facet normal  0.000000e+000  -0.000000e+000 -1.000000e+000
    outer loop
      vertex  0.000000e+000  0.000000e+000  0.000000e+000
      vertex  2.778653e+001  1.515268e+000  0.000000e+000
      vertex  2.821347e+001  1.515268e+000  0.000000e+000
    endloop
  endfacet
  facet normal  0.000000e+000  -0.000000e+000 -1.000000e+000
    outer loop
      vertex  0.000000e+000  0.000000e+000  0.000000e+000
      vertex  2.821347e+001  1.515268e+000  0.000000e+000
      vertex  3.100000e+001  0.000000e+000  0.000000e+000
    endloop
  endfacet
  facet normal  -0.000000e+000  0.000000e+000 -1.000000e+000
    outer loop
      vertex  0.000000e+000  6.000000e+000  0.000000e+000
      vertex  3.100000e+001  6.000000e+000  0.000000e+000
      vertex  2.821347e+001  4.484732e+000  0.000000e+000
    endloop
  endfacet
  facet normal  0.000000e+000  0.000000e+000 -1.000000e+000
    outer loop
      vertex  0.000000e+000  6.000000e+000  0.000000e+000
      vertex  2.821347e+001  4.484732e+000  0.000000e+000
      vertex  2.778653e+001  4.484732e+000  0.000000e+000
    endloop
  endfacet
  facet normal  0.000000e+000  0.000000e+000 -1.000000e+000
    outer loop
      vertex  0.000000e+000  6.000000e+000  0.000000e+000
      vertex  2.778653e+001  4.484732e+000  0.000000e+000
      vertex  3.213472e+000  4.484732e+000  0.000000e+000
    endloop
  endfacet
  facet normal  0.000000e+000  0.000000e+000 -1.000000e+000
    outer loop
      vertex  0.000000e+000  6.000000e+000  0.000000e+000
      vertex  3.213472e+000  4.484732e+000  0.000000e+000
      vertex  2.786528e+000  4.484732e+000  0.000000e+000
    endloop
  endfacet
  facet normal  -0.000000e+000  0.000000e+000 -1.000000e+000
    outer loop
      vertex  0.000000e+000  6.000000e+000  0.000000e+000
      vertex  2.786528e+000  4.484732e+000  0.000000e+000
      vertex  2.376878e+000  4.364448e+000  0.000000e+000
    endloop
  endfacet
  facet normal  -0.000000e+000  0.000000e+000 -1.000000e+000
    outer loop
      vertex  0.000000e+000  6.000000e+000  0.000000e+000
      vertex  2.376878e+000  4.364448e+000  0.000000e+000
      vertex  2.017709e+000  4.133625e+000  0.000000e+000
    endloop
  endfacet
  facet normal  -0.000000e+000  0.000000e+000 -1.000000e+000
    outer loop
      vertex  0.000000e+000  6.000000e+000  0.000000e+000
      vertex  2.017709e+000  4.133625e+000  0.000000e+000
      vertex  1.738120e+000  3.810961e+000  0.000000e+000
    endloop
  endfacet
  facet normal  -0.000000e+000  0.000000e+000 -1.000000e+000
    outer loop
      vertex  0.000000e+000  6.000000e+000  0.000000e+000
      vertex  1.738120e+000  3.810961e+000  0.000000e+000
      vertex  1.560760e+000  3.422599e+000  0.000000e+000
    endloop
  endfacet
  facet normal  -0.000000e+000  0.000000e+000 -1.000000e+000
    outer loop
      vertex  0.000000e+000  6.000000e+000  0.000000e+000
      vertex  1.560760e+000  3.422599e+000  0.000000e+000
      vertex  0.000000e+000  0.000000e+000  0.000000e+000
    endloop
  endfacet
  facet normal  0.000000e+000  0.000000e+000 -1.000000e+000
    outer loop
      vertex  3.100000e+001  0.000000e+000  0.000000e+000
      vertex  2.821347e+001  1.515268e+000  0.000000e+000
      vertex  2.862312e+001  1.635552e+000  0.000000e+000
    endloop
  endfacet
  facet normal  0.000000e+000  0.000000e+000 -1.000000e+000
    outer loop
      vertex  3.100000e+001  0.000000e+000  0.000000e+000
      vertex  2.862312e+001  1.635552e+000  0.000000e+000
      vertex  2.898229e+001  1.866376e+000  0.000000e+000
    endloop
  endfacet
  facet normal  0.000000e+000  0.000000e+000 -1.000000e+000
    outer loop
      vertex  3.100000e+001  0.000000e+000  0.000000e+000
      vertex  2.898229e+001  1.866376e+000  0.000000e+000
      vertex  2.926188e+001  2.189039e+000  0.000000e+000
    endloop
  endfacet
  facet normal  0.000000e+000  0.000000e+000 -1.000000e+000
    outer loop
      vertex  3.100000e+001  0.000000e+000  0.000000e+000
      vertex  2.926188e+001  2.189039e+000  0.000000e+000
      vertex  2.943924e+001  2.577401e+000  0.000000e+000
    endloop
  endfacet
  facet normal  0.000000e+000  0.000000e+000 -1.000000e+000
    outer loop
      vertex  3.100000e+001  0.000000e+000  0.000000e+000
      vertex  2.943924e+001  2.577401e+000  0.000000e+000
      vertex  2.950000e+001  3.000000e+000  0.000000e+000
    endloop
  endfacet
  facet normal  0.000000e+000  0.000000e+000 -1.000000e+000
    outer loop
      vertex  3.100000e+001  0.000000e+000  0.000000e+000
      vertex  2.950000e+001  3.000000e+000  0.000000e+000
      vertex  2.943924e+001  3.422599e+000  0.000000e+000
    endloop
  endfacet
  facet normal  0.000000e+000  0.000000e+000 -1.000000e+000
    outer loop
      vertex  3.100000e+001  6.000000e+000  0.000000e+000
      vertex  3.100000e+001  0.000000e+000  0.000000e+000
      vertex  2.943924e+001  3.422599e+000  0.000000e+000
    endloop
  endfacet
  facet normal  0.000000e+000  0.000000e+000 -1.000000e+000
    outer loop
      vertex  3.100000e+001  6.000000e+000  0.000000e+000
      vertex  2.943924e+001  3.422599e+000  0.000000e+000
      vertex  2.926188e+001  3.810961e+000  0.000000e+000
    endloop
  endfacet
  facet normal  0.000000e+000  0.000000e+000 -1.000000e+000
    outer loop
      vertex  3.100000e+001  6.000000e+000  0.000000e+000
      vertex  2.926188e+001  3.810961e+000  0.000000e+000
      vertex  2.898229e+001  4.133625e+000  0.000000e+000
    endloop
  endfacet
  facet normal  0.000000e+000  0.000000e+000 -1.000000e+000
    outer loop
      vertex  3.100000e+001  6.000000e+000  0.000000e+000
      vertex  2.898229e+001  4.133625e+000  0.000000e+000
      vertex  2.862312e+001  4.364448e+000  0.000000e+000
    endloop
  endfacet
  facet normal  0.000000e+000  0.000000e+000 -1.000000e+000
    outer loop
      vertex  3.100000e+001  6.000000e+000  0.000000e+000
      vertex  2.862312e+001  4.364448e+000  0.000000e+000
      vertex  2.821347e+001  4.484732e+000  0.000000e+000
    endloop
  endfacet
  facet normal  0.000000e+000  0.000000e+000 -1.000000e+000
    outer loop
      vertex  2.650000e+001  3.000000e+000  0.000000e+000
      vertex  4.439240e+000  3.422599e+000  0.000000e+000
      vertex  2.656076e+001  3.422599e+000  0.000000e+000
    endloop
  endfacet
  facet normal  0.000000e+000  0.000000e+000 -1.000000e+000
    outer loop
      vertex  2.656076e+001  3.422599e+000  0.000000e+000
      vertex  4.439240e+000  3.422599e+000  0.000000e+000
      vertex  4.261880e+000  3.810961e+000  0.000000e+000
    endloop
  endfacet
  facet normal  0.000000e+000  0.000000e+000 -1.000000e+000
    outer loop
      vertex  2.656076e+001  3.422599e+000  0.000000e+000
      vertex  4.261880e+000  3.810961e+000  0.000000e+000
      vertex  2.673812e+001  3.810961e+000  0.000000e+000
    endloop
  endfacet
  facet normal  0.000000e+000  0.000000e+000 -1.000000e+000
    outer loop
      vertex  2.673812e+001  3.810961e+000  0.000000e+000
      vertex  4.261880e+000  3.810961e+000  0.000000e+000
      vertex  3.982291e+000  4.133625e+000  0.000000e+000
    endloop
  endfacet
  facet normal  0.000000e+000  0.000000e+000 -9.999999e-001
    outer loop
      vertex  2.673812e+001  3.810961e+000  0.000000e+000
      vertex  3.982291e+000  4.133625e+000  0.000000e+000
      vertex  2.701771e+001  4.133625e+000  0.000000e+000
    endloop
  endfacet
  facet normal  0.000000e+000  0.000000e+000 -9.999999e-001
    outer loop
      vertex  2.701771e+001  4.133625e+000  0.000000e+000
      vertex  3.982291e+000  4.133625e+000  0.000000e+000
      vertex  3.623122e+000  4.364448e+000  0.000000e+000
    endloop
  endfacet
  facet normal  0.000000e+000  0.000000e+000 -1.000000e+000
    outer loop
      vertex  2.701771e+001  4.133625e+000  0.000000e+000
      vertex  3.623122e+000  4.364448e+000  0.000000e+000
      vertex  2.737688e+001  4.364448e+000  0.000000e+000
    endloop
  endfacet
  facet normal  0.000000e+000  0.000000e+000 -1.000000e+000
    outer loop
      vertex  2.737688e+001  4.364448e+000  0.000000e+000
      vertex  3.623122e+000  4.364448e+000  0.000000e+000
      vertex  3.213472e+000  4.484732e+000  0.000000e+000
    endloop
  endfacet
  facet normal  0.000000e+000  0.000000e+000 -1.000000e+000
    outer loop
      vertex  2.737688e+001  4.364448e+000  0.000000e+000
      vertex  3.213472e+000  4.484732e+000  0.000000e+000
      vertex  2.778653e+001  4.484732e+000  0.000000e+000
    endloop
  endfacet
  facet normal  0.000000e+000  0.000000e+000 -1.000000e+000
    outer loop
      vertex  4.439240e+000  3.422599e+000  0.000000e+000
      vertex  2.650000e+001  3.000000e+000  0.000000e+000
      vertex  4.500000e+000  3.000000e+000  0.000000e+000
    endloop
  endfacet
  facet normal  0.000000e+000  0.000000e+000 -1.000000e+000
    outer loop
      vertex  4.500000e+000  3.000000e+000  0.000000e+000
      vertex  2.650000e+001  3.000000e+000  0.000000e+000
      vertex  2.656076e+001  2.577401e+000  0.000000e+000
    endloop
  endfacet
  facet normal  0.000000e+000  0.000000e+000 -1.000000e+000
    outer loop
      vertex  4.500000e+000  3.000000e+000  0.000000e+000
      vertex  2.656076e+001  2.577401e+000  0.000000e+000
      vertex  4.439240e+000  2.577401e+000  0.000000e+000
    endloop
  endfacet
  facet normal  0.000000e+000  0.000000e+000 -1.000000e+000
    outer loop
      vertex  4.439240e+000  2.577401e+000  0.000000e+000
      vertex  2.656076e+001  2.577401e+000  0.000000e+000
      vertex  2.673812e+001  2.189039e+000  0.000000e+000
    endloop
  endfacet
  facet normal  0.000000e+000  0.000000e+000 -1.000000e+000
    outer loop
      vertex  4.439240e+000  2.577401e+000  0.000000e+000
      vertex  2.673812e+001  2.189039e+000  0.000000e+000
      vertex  4.261880e+000  2.189039e+000  0.000000e+000
    endloop
  endfacet
  facet normal  0.000000e+000  0.000000e+000 -1.000000e+000
    outer loop
      vertex  4.261880e+000  2.189039e+000  0.000000e+000
      vertex  2.673812e+001  2.189039e+000  0.000000e+000
      vertex  2.701771e+001  1.866376e+000  0.000000e+000
    endloop
  endfacet
  facet normal  0.000000e+000  0.000000e+000 -1.000000e+000
    outer loop
      vertex  4.261880e+000  2.189039e+000  0.000000e+000
      vertex  2.701771e+001  1.866376e+000  0.000000e+000
      vertex  3.982291e+000  1.866376e+000  0.000000e+000
    endloop
  endfacet
  facet normal  0.000000e+000  0.000000e+000 -1.000000e+000
    outer loop
      vertex  3.982291e+000  1.866376e+000  0.000000e+000
      vertex  2.701771e+001  1.866376e+000  0.000000e+000
      vertex  2.737688e+001  1.635552e+000  0.000000e+000
    endloop
  endfacet
  facet normal  0.000000e+000  0.000000e+000 -1.000000e+000
    outer loop
      vertex  3.982291e+000  1.866376e+000  0.000000e+000
      vertex  2.737688e+001  1.635552e+000  0.000000e+000
      vertex  3.623122e+000  1.635552e+000  0.000000e+000
    endloop
  endfacet
  facet normal  0.000000e+000  0.000000e+000 -1.000000e+000
    outer loop
      vertex  3.623122e+000  1.635552e+000  0.000000e+000
      vertex  2.737688e+001  1.635552e+000  0.000000e+000
      vertex  2.778653e+001  1.515268e+000  0.000000e+000
    endloop
  endfacet
  facet normal  0.000000e+000  0.000000e+000 -1.000000e+000
    outer loop
      vertex  3.623122e+000  1.635552e+000  0.000000e+000
      vertex  2.778653e+001  1.515268e+000  0.000000e+000
      vertex  3.213472e+000  1.515268e+000  0.000000e+000
    endloop
  endfacet
  facet normal -2.817323e-001  9.594930e-001  0.000000e+000
    outer loop
      vertex  2.821347e+001  1.515268e+000  0.000000e+000
      vertex  2.862312e+001  1.635552e+000  2.000000e+000
      vertex  2.862312e+001  1.635552e+000  0.000000e+000
    endloop
  endfacet
  facet normal -5.406424e-001  8.412525e-001  0.000000e+000
    outer loop
      vertex  2.862312e+001  1.635552e+000  0.000000e+000
      vertex  2.862312e+001  1.635552e+000  2.000000e+000
      vertex  2.898229e+001  1.866376e+000  2.000000e+000
    endloop
  endfacet
  facet normal -5.406424e-001  8.412525e-001  0.000000e+000
    outer loop
      vertex  2.862312e+001  1.635552e+000  0.000000e+000
      vertex  2.898229e+001  1.866376e+000  2.000000e+000
      vertex  2.898229e+001  1.866376e+000  0.000000e+000
    endloop
  endfacet
  facet normal -7.557479e-001  6.548626e-001  0.000000e+000
    outer loop
      vertex  2.898229e+001  1.866376e+000  0.000000e+000
      vertex  2.898229e+001  1.866376e+000  2.000000e+000
      vertex  2.926188e+001  2.189039e+000  2.000000e+000
    endloop
  endfacet
  facet normal -7.557479e-001  6.548626e-001  0.000000e+000
    outer loop
      vertex  2.898229e+001  1.866376e+000  0.000000e+000
      vertex  2.926188e+001  2.189039e+000  2.000000e+000
      vertex  2.926188e+001  2.189039e+000  0.000000e+000
    endloop
  endfacet
  facet normal -9.096324e-001  4.154139e-001  0.000000e+000
    outer loop
      vertex  2.926188e+001  2.189039e+000  0.000000e+000
      vertex  2.926188e+001  2.189039e+000  2.000000e+000
      vertex  2.943924e+001  2.577401e+000  2.000000e+000
    endloop
  endfacet
  facet normal -9.096324e-001  4.154139e-001  0.000000e+000
    outer loop
      vertex  2.926188e+001  2.189039e+000  0.000000e+000
      vertex  2.943924e+001  2.577401e+000  2.000000e+000
      vertex  2.943924e+001  2.577401e+000  0.000000e+000
    endloop
  endfacet
  facet normal -9.898215e-001  1.423147e-001  0.000000e+000
    outer loop
      vertex  2.943924e+001  2.577401e+000  0.000000e+000
      vertex  2.943924e+001  2.577401e+000  2.000000e+000
      vertex  2.950000e+001  3.000000e+000  2.000000e+000
    endloop
  endfacet
  facet normal -9.898215e-001  1.423147e-001  0.000000e+000
    outer loop
      vertex  2.943924e+001  2.577401e+000  0.000000e+000
      vertex  2.950000e+001  3.000000e+000  2.000000e+000
      vertex  2.950000e+001  3.000000e+000  0.000000e+000
    endloop
  endfacet
  facet normal -2.817323e-001  9.594930e-001  0.000000e+000
    outer loop
      vertex  2.862312e+001  1.635552e+000  2.000000e+000
      vertex  2.821347e+001  1.515268e+000  0.000000e+000
      vertex  2.821347e+001  1.515268e+000  2.000000e+000
    endloop
  endfacet
  facet normal  0.000000e+000  1.000000e+000  0.000000e+000
    outer loop
      vertex  2.821347e+001  1.515268e+000  2.000000e+000
      vertex  2.821347e+001  1.515268e+000  0.000000e+000
      vertex  2.778653e+001  1.515268e+000  0.000000e+000
    endloop
  endfacet
  facet normal  0.000000e+000  1.000000e+000  0.000000e+000
    outer loop
      vertex  2.821347e+001  1.515268e+000  2.000000e+000
      vertex  2.778653e+001  1.515268e+000  0.000000e+000
      vertex  2.778653e+001  1.515268e+000  2.000000e+000
    endloop
  endfacet
  facet normal  2.817323e-001  9.594930e-001  0.000000e+000
    outer loop
      vertex  2.778653e+001  1.515268e+000  2.000000e+000
      vertex  2.778653e+001  1.515268e+000  0.000000e+000
      vertex  2.737688e+001  1.635552e+000  0.000000e+000
    endloop
  endfacet
  facet normal  2.817323e-001  9.594930e-001  -0.000000e+000
    outer loop
      vertex  2.778653e+001  1.515268e+000  2.000000e+000
      vertex  2.737688e+001  1.635552e+000  0.000000e+000
      vertex  2.737688e+001  1.635552e+000  2.000000e+000
    endloop
  endfacet
  facet normal  5.406424e-001  8.412525e-001  0.000000e+000
    outer loop
      vertex  2.737688e+001  1.635552e+000  2.000000e+000
      vertex  2.737688e+001  1.635552e+000  0.000000e+000
      vertex  2.701771e+001  1.866376e+000  0.000000e+000
    endloop
  endfacet
  facet normal  5.406424e-001  8.412525e-001  -0.000000e+000
    outer loop
      vertex  2.737688e+001  1.635552e+000  2.000000e+000
      vertex  2.701771e+001  1.866376e+000  0.000000e+000
      vertex  2.701771e+001  1.866376e+000  2.000000e+000
    endloop
  endfacet
  facet normal  7.557479e-001  6.548626e-001  0.000000e+000
    outer loop
      vertex  2.701771e+001  1.866376e+000  2.000000e+000
      vertex  2.701771e+001  1.866376e+000  0.000000e+000
      vertex  2.673812e+001  2.189039e+000  0.000000e+000
    endloop
  endfacet
  facet normal  7.557479e-001  6.548626e-001  -0.000000e+000
    outer loop
      vertex  2.701771e+001  1.866376e+000  2.000000e+000
      vertex  2.673812e+001  2.189039e+000  0.000000e+000
      vertex  2.673812e+001  2.189039e+000  2.000000e+000
    endloop
  endfacet
  facet normal  9.096324e-001  4.154139e-001  0.000000e+000
    outer loop
      vertex  2.673812e+001  2.189039e+000  2.000000e+000
      vertex  2.673812e+001  2.189039e+000  0.000000e+000
      vertex  2.656076e+001  2.577401e+000  0.000000e+000
    endloop
  endfacet
  facet normal  9.096324e-001  4.154139e-001  -0.000000e+000
    outer loop
      vertex  2.673812e+001  2.189039e+000  2.000000e+000
      vertex  2.656076e+001  2.577401e+000  0.000000e+000
      vertex  2.656076e+001  2.577401e+000  2.000000e+000
    endloop
  endfacet
  facet normal  9.898215e-001  1.423147e-001  0.000000e+000
    outer loop
      vertex  2.656076e+001  2.577401e+000  2.000000e+000
      vertex  2.656076e+001  2.577401e+000  0.000000e+000
      vertex  2.650000e+001  3.000000e+000  0.000000e+000
    endloop
  endfacet
  facet normal  9.898215e-001  1.423147e-001  -0.000000e+000
    outer loop
      vertex  2.656076e+001  2.577401e+000  2.000000e+000
      vertex  2.650000e+001  3.000000e+000  0.000000e+000
      vertex  2.650000e+001  3.000000e+000  2.000000e+000
    endloop
  endfacet
  facet normal  2.817320e-001 -9.594931e-001  0.000000e+000
    outer loop
      vertex  2.778653e+001  4.484732e+000  0.000000e+000
      vertex  2.737688e+001  4.364448e+000  2.000000e+000
      vertex  2.737688e+001  4.364448e+000  0.000000e+000
    endloop
  endfacet
  facet normal  5.406422e-001 -8.412527e-001  0.000000e+000
    outer loop
      vertex  2.737688e+001  4.364448e+000  0.000000e+000
      vertex  2.737688e+001  4.364448e+000  2.000000e+000
      vertex  2.701771e+001  4.133625e+000  2.000000e+000
    endloop
  endfacet
  facet normal  5.406422e-001 -8.412527e-001  0.000000e+000
    outer loop
      vertex  2.737688e+001  4.364448e+000  0.000000e+000
      vertex  2.701771e+001  4.133625e+000  2.000000e+000
      vertex  2.701771e+001  4.133625e+000  0.000000e+000
    endloop
  endfacet
  facet normal  7.557481e-001 -6.548624e-001  0.000000e+000
    outer loop
      vertex  2.701771e+001  4.133625e+000  0.000000e+000
      vertex  2.701771e+001  4.133625e+000  2.000000e+000
      vertex  2.673812e+001  3.810961e+000  2.000000e+000
    endloop
  endfacet
  facet normal  7.557481e-001 -6.548624e-001  0.000000e+000
    outer loop
      vertex  2.701771e+001  4.133625e+000  0.000000e+000
      vertex  2.673812e+001  3.810961e+000  2.000000e+000
      vertex  2.673812e+001  3.810961e+000  0.000000e+000
    endloop
  endfacet
  facet normal  9.096324e-001 -4.154139e-001  0.000000e+000
    outer loop
      vertex  2.673812e+001  3.810961e+000  0.000000e+000
      vertex  2.673812e+001  3.810961e+000  2.000000e+000
      vertex  2.656076e+001  3.422599e+000  2.000000e+000
    endloop
  endfacet
  facet normal  9.096324e-001 -4.154139e-001  0.000000e+000
    outer loop
      vertex  2.673812e+001  3.810961e+000  0.000000e+000
      vertex  2.656076e+001  3.422599e+000  2.000000e+000
      vertex  2.656076e+001  3.422599e+000  0.000000e+000
    endloop
  endfacet
  facet normal  9.898215e-001 -1.423147e-001  0.000000e+000
    outer loop
      vertex  2.656076e+001  3.422599e+000  0.000000e+000
      vertex  2.656076e+001  3.422599e+000  2.000000e+000
      vertex  2.650000e+001  3.000000e+000  2.000000e+000
    endloop
  endfacet
  facet normal  9.898215e-001 -1.423147e-001  0.000000e+000
    outer loop
      vertex  2.656076e+001  3.422599e+000  0.000000e+000
      vertex  2.650000e+001  3.000000e+000  2.000000e+000
      vertex  2.650000e+001  3.000000e+000  0.000000e+000
    endloop
  endfacet
  facet normal  2.817320e-001 -9.594931e-001  0.000000e+000
    outer loop
      vertex  2.737688e+001  4.364448e+000  2.000000e+000
      vertex  2.778653e+001  4.484732e+000  0.000000e+000
      vertex  2.778653e+001  4.484732e+000  2.000000e+000
    endloop
  endfacet
  facet normal  0.000000e+000 -1.000000e+000  0.000000e+000
    outer loop
      vertex  2.778653e+001  4.484732e+000  2.000000e+000
      vertex  2.778653e+001  4.484732e+000  0.000000e+000
      vertex  2.821347e+001  4.484732e+000  0.000000e+000
    endloop
  endfacet
  facet normal  0.000000e+000 -1.000000e+000  0.000000e+000
    outer loop
      vertex  2.778653e+001  4.484732e+000  2.000000e+000
      vertex  2.821347e+001  4.484732e+000  0.000000e+000
      vertex  2.821347e+001  4.484732e+000  2.000000e+000
    endloop
  endfacet
  facet normal -2.817320e-001 -9.594931e-001  -0.000000e+000
    outer loop
      vertex  2.821347e+001  4.484732e+000  2.000000e+000
      vertex  2.821347e+001  4.484732e+000  0.000000e+000
      vertex  2.862312e+001  4.364448e+000  0.000000e+000
    endloop
  endfacet
  facet normal -2.817320e-001 -9.594931e-001  0.000000e+000
    outer loop
      vertex  2.821347e+001  4.484732e+000  2.000000e+000
      vertex  2.862312e+001  4.364448e+000  0.000000e+000
      vertex  2.862312e+001  4.364448e+000  2.000000e+000
    endloop
  endfacet
  facet normal -5.406422e-001 -8.412527e-001  -0.000000e+000
    outer loop
      vertex  2.862312e+001  4.364448e+000  2.000000e+000
      vertex  2.862312e+001  4.364448e+000  0.000000e+000
      vertex  2.898229e+001  4.133625e+000  0.000000e+000
    endloop
  endfacet
  facet normal -5.406422e-001 -8.412527e-001  0.000000e+000
    outer loop
      vertex  2.862312e+001  4.364448e+000  2.000000e+000
      vertex  2.898229e+001  4.133625e+000  0.000000e+000
      vertex  2.898229e+001  4.133625e+000  2.000000e+000
    endloop
  endfacet
  facet normal -7.557481e-001 -6.548624e-001  -0.000000e+000
    outer loop
      vertex  2.898229e+001  4.133625e+000  2.000000e+000
      vertex  2.898229e+001  4.133625e+000  0.000000e+000
      vertex  2.926188e+001  3.810961e+000  0.000000e+000
    endloop
  endfacet
  facet normal -7.557481e-001 -6.548624e-001  0.000000e+000
    outer loop
      vertex  2.898229e+001  4.133625e+000  2.000000e+000
      vertex  2.926188e+001  3.810961e+000  0.000000e+000
      vertex  2.926188e+001  3.810961e+000  2.000000e+000
    endloop
  endfacet
  facet normal -9.096324e-001 -4.154139e-001  -0.000000e+000
    outer loop
      vertex  2.926188e+001  3.810961e+000  2.000000e+000
      vertex  2.926188e+001  3.810961e+000  0.000000e+000
      vertex  2.943924e+001  3.422599e+000  0.000000e+000
    endloop
  endfacet
  facet normal -9.096324e-001 -4.154139e-001  0.000000e+000
    outer loop
      vertex  2.926188e+001  3.810961e+000  2.000000e+000
      vertex  2.943924e+001  3.422599e+000  0.000000e+000
      vertex  2.943924e+001  3.422599e+000  2.000000e+000
    endloop
  endfacet
  facet normal -9.898215e-001 -1.423147e-001  -0.000000e+000
    outer loop
      vertex  2.943924e+001  3.422599e+000  2.000000e+000
      vertex  2.943924e+001  3.422599e+000  0.000000e+000
      vertex  2.950000e+001  3.000000e+000  0.000000e+000
    endloop
  endfacet
  facet normal -9.898215e-001 -1.423147e-001  0.000000e+000
    outer loop
      vertex  2.943924e+001  3.422599e+000  2.000000e+000
      vertex  2.950000e+001  3.000000e+000  0.000000e+000
      vertex  2.950000e+001  3.000000e+000  2.000000e+000
    endloop
  endfacet
  facet normal  2.817325e-001 -9.594930e-001  0.000000e+000
    outer loop
      vertex  2.786528e+000  4.484732e+000  0.000000e+000
      vertex  2.376878e+000  4.364448e+000  2.000000e+000
      vertex  2.376878e+000  4.364448e+000  0.000000e+000
    endloop
  endfacet
  facet normal  5.406407e-001 -8.412536e-001  0.000000e+000
    outer loop
      vertex  2.376878e+000  4.364448e+000  0.000000e+000
      vertex  2.376878e+000  4.364448e+000  2.000000e+000
      vertex  2.017709e+000  4.133625e+000  2.000000e+000
    endloop
  endfacet
  facet normal  5.406407e-001 -8.412536e-001  0.000000e+000
    outer loop
      vertex  2.376878e+000  4.364448e+000  0.000000e+000
      vertex  2.017709e+000  4.133625e+000  2.000000e+000
      vertex  2.017709e+000  4.133625e+000  0.000000e+000
    endloop
  endfacet
  facet normal  7.557496e-001 -6.548607e-001  0.000000e+000
    outer loop
      vertex  2.017709e+000  4.133625e+000  0.000000e+000
      vertex  2.017709e+000  4.133625e+000  2.000000e+000
      vertex  1.738120e+000  3.810961e+000  2.000000e+000
    endloop
  endfacet
  facet normal  7.557496e-001 -6.548607e-001  0.000000e+000
    outer loop
      vertex  2.017709e+000  4.133625e+000  0.000000e+000
      vertex  1.738120e+000  3.810961e+000  2.000000e+000
      vertex  1.738120e+000  3.810961e+000  0.000000e+000
    endloop
  endfacet
  facet normal  9.096320e-001 -4.154151e-001  0.000000e+000
    outer loop
      vertex  1.738120e+000  3.810961e+000  0.000000e+000
      vertex  1.738120e+000  3.810961e+000  2.000000e+000
      vertex  1.560760e+000  3.422599e+000  2.000000e+000
    endloop
  endfacet
  facet normal  9.096320e-001 -4.154151e-001  0.000000e+000
    outer loop
      vertex  1.738120e+000  3.810961e+000  0.000000e+000
      vertex  1.560760e+000  3.422599e+000  2.000000e+000
      vertex  1.560760e+000  3.422599e+000  0.000000e+000
    endloop
  endfacet
  facet normal  9.898215e-001 -1.423147e-001  0.000000e+000
    outer loop
      vertex  1.560760e+000  3.422599e+000  0.000000e+000
      vertex  1.560760e+000  3.422599e+000  2.000000e+000
      vertex  1.500000e+000  3.000000e+000  2.000000e+000
    endloop
  endfacet
  facet normal  9.898215e-001 -1.423147e-001  0.000000e+000
    outer loop
      vertex  1.560760e+000  3.422599e+000  0.000000e+000
      vertex  1.500000e+000  3.000000e+000  2.000000e+000
      vertex  1.500000e+000  3.000000e+000  0.000000e+000
    endloop
  endfacet
  facet normal  2.817325e-001 -9.594930e-001  0.000000e+000
    outer loop
      vertex  2.376878e+000  4.364448e+000  2.000000e+000
      vertex  2.786528e+000  4.484732e+000  0.000000e+000
      vertex  2.786528e+000  4.484732e+000  2.000000e+000
    endloop
  endfacet
  facet normal  0.000000e+000 -1.000000e+000  0.000000e+000
    outer loop
      vertex  2.786528e+000  4.484732e+000  2.000000e+000
      vertex  2.786528e+000  4.484732e+000  0.000000e+000
      vertex  3.213472e+000  4.484732e+000  0.000000e+000
    endloop
  endfacet
  facet normal  0.000000e+000 -1.000000e+000  0.000000e+000
    outer loop
      vertex  2.786528e+000  4.484732e+000  2.000000e+000
      vertex  3.213472e+000  4.484732e+000  0.000000e+000
      vertex  3.213472e+000  4.484732e+000  2.000000e+000
    endloop
  endfacet
  facet normal -2.817325e-001 -9.594930e-001  -0.000000e+000
    outer loop
      vertex  3.213472e+000  4.484732e+000  2.000000e+000
      vertex  3.213472e+000  4.484732e+000  0.000000e+000
      vertex  3.623122e+000  4.364448e+000  0.000000e+000
    endloop
  endfacet
  facet normal -2.817325e-001 -9.594930e-001  0.000000e+000
    outer loop
      vertex  3.213472e+000  4.484732e+000  2.000000e+000
      vertex  3.623122e+000  4.364448e+000  0.000000e+000
      vertex  3.623122e+000  4.364448e+000  2.000000e+000
    endloop
  endfacet
  facet normal -5.406407e-001 -8.412536e-001  -0.000000e+000
    outer loop
      vertex  3.623122e+000  4.364448e+000  2.000000e+000
      vertex  3.623122e+000  4.364448e+000  0.000000e+000
      vertex  3.982291e+000  4.133625e+000  0.000000e+000
    endloop
  endfacet
  facet normal -5.406407e-001 -8.412536e-001  0.000000e+000
    outer loop
      vertex  3.623122e+000  4.364448e+000  2.000000e+000
      vertex  3.982291e+000  4.133625e+000  0.000000e+000
      vertex  3.982291e+000  4.133625e+000  2.000000e+000
    endloop
  endfacet
  facet normal -7.557495e-001 -6.548608e-001  -0.000000e+000
    outer loop
      vertex  3.982291e+000  4.133625e+000  2.000000e+000
      vertex  3.982291e+000  4.133625e+000  0.000000e+000
      vertex  4.261880e+000  3.810961e+000  0.000000e+000
    endloop
  endfacet
  facet normal -7.557495e-001 -6.548608e-001  0.000000e+000
    outer loop
      vertex  3.982291e+000  4.133625e+000  2.000000e+000
      vertex  4.261880e+000  3.810961e+000  0.000000e+000
      vertex  4.261880e+000  3.810961e+000  2.000000e+000
    endloop
  endfacet
  facet normal -9.096321e-001 -4.154149e-001  -0.000000e+000
    outer loop
      vertex  4.261880e+000  3.810961e+000  2.000000e+000
      vertex  4.261880e+000  3.810961e+000  0.000000e+000
      vertex  4.439240e+000  3.422599e+000  0.000000e+000
    endloop
  endfacet
  facet normal -9.096321e-001 -4.154149e-001  0.000000e+000
    outer loop
      vertex  4.261880e+000  3.810961e+000  2.000000e+000
      vertex  4.439240e+000  3.422599e+000  0.000000e+000
      vertex  4.439240e+000  3.422599e+000  2.000000e+000
    endloop
  endfacet
  facet normal -9.898215e-001 -1.423147e-001  -0.000000e+000
    outer loop
      vertex  4.439240e+000  3.422599e+000  2.000000e+000
      vertex  4.439240e+000  3.422599e+000  0.000000e+000
      vertex  4.500000e+000  3.000000e+000  0.000000e+000
    endloop
  endfacet
  facet normal -9.898215e-001 -1.423147e-001  0.000000e+000
    outer loop
      vertex  4.439240e+000  3.422599e+000  2.000000e+000
      vertex  4.500000e+000  3.000000e+000  0.000000e+000
      vertex  4.500000e+000  3.000000e+000  2.000000e+000
    endloop
  endfacet
  facet normal -2.817327e-001  9.594929e-001  0.000000e+000
    outer loop
      vertex  3.213472e+000  1.515268e+000  0.000000e+000
      vertex  3.623122e+000  1.635552e+000  2.000000e+000
      vertex  3.623122e+000  1.635552e+000  0.000000e+000
    endloop
  endfacet
  facet normal -5.406409e-001  8.412535e-001  0.000000e+000
    outer loop
      vertex  3.623122e+000  1.635552e+000  0.000000e+000
      vertex  3.623122e+000  1.635552e+000  2.000000e+000
      vertex  3.982291e+000  1.866376e+000  2.000000e+000
    endloop
  endfacet
  facet normal -5.406409e-001  8.412535e-001  0.000000e+000
    outer loop
      vertex  3.623122e+000  1.635552e+000  0.000000e+000
      vertex  3.982291e+000  1.866376e+000  2.000000e+000
      vertex  3.982291e+000  1.866376e+000  0.000000e+000
    endloop
  endfacet
  facet normal -7.557492e-001  6.548611e-001  0.000000e+000
    outer loop
      vertex  3.982291e+000  1.866376e+000  0.000000e+000
      vertex  3.982291e+000  1.866376e+000  2.000000e+000
      vertex  4.261880e+000  2.189039e+000  2.000000e+000
    endloop
  endfacet
  facet normal -7.557492e-001  6.548611e-001  0.000000e+000
    outer loop
      vertex  3.982291e+000  1.866376e+000  0.000000e+000
      vertex  4.261880e+000  2.189039e+000  2.000000e+000
      vertex  4.261880e+000  2.189039e+000  0.000000e+000
    endloop
  endfacet
  facet normal -9.096321e-001  4.154149e-001  0.000000e+000
    outer loop
      vertex  4.261880e+000  2.189039e+000  0.000000e+000
      vertex  4.261880e+000  2.189039e+000  2.000000e+000
      vertex  4.439240e+000  2.577401e+000  2.000000e+000
    endloop
  endfacet
  facet normal -9.096321e-001  4.154149e-001  0.000000e+000
    outer loop
      vertex  4.261880e+000  2.189039e+000  0.000000e+000
      vertex  4.439240e+000  2.577401e+000  2.000000e+000
      vertex  4.439240e+000  2.577401e+000  0.000000e+000
    endloop
  endfacet
  facet normal -9.898215e-001  1.423147e-001  0.000000e+000
    outer loop
      vertex  4.439240e+000  2.577401e+000  0.000000e+000
      vertex  4.439240e+000  2.577401e+000  2.000000e+000
      vertex  4.500000e+000  3.000000e+000  2.000000e+000
    endloop
  endfacet
  facet normal -9.898215e-001  1.423147e-001  0.000000e+000
    outer loop
      vertex  4.439240e+000  2.577401e+000  0.000000e+000
      vertex  4.500000e+000  3.000000e+000  2.000000e+000
      vertex  4.500000e+000  3.000000e+000  0.000000e+000
    endloop
  endfacet
  facet normal -2.817327e-001  9.594929e-001  0.000000e+000
    outer loop
      vertex  3.623122e+000  1.635552e+000  2.000000e+000
      vertex  3.213472e+000  1.515268e+000  0.000000e+000
      vertex  3.213472e+000  1.515268e+000  2.000000e+000
    endloop
  endfacet
  facet normal  0.000000e+000  1.000000e+000  0.000000e+000
    outer loop
      vertex  3.213472e+000  1.515268e+000  2.000000e+000
      vertex  3.213472e+000  1.515268e+000  0.000000e+000
      vertex  2.786528e+000  1.515268e+000  0.000000e+000
    endloop
  endfacet
  facet normal  0.000000e+000  1.000000e+000  0.000000e+000
    outer loop
      vertex  3.213472e+000  1.515268e+000  2.000000e+000
      vertex  2.786528e+000  1.515268e+000  0.000000e+000
      vertex  2.786528e+000  1.515268e+000  2.000000e+000
    endloop
  endfacet
  facet normal  2.817327e-001  9.594929e-001  0.000000e+000
    outer loop
      vertex  2.786528e+000  1.515268e+000  2.000000e+000
      vertex  2.786528e+000  1.515268e+000  0.000000e+000
      vertex  2.376878e+000  1.635552e+000  0.000000e+000
    endloop
  endfacet
  facet normal  2.817327e-001  9.594929e-001  -0.000000e+000
    outer loop
      vertex  2.786528e+000  1.515268e+000  2.000000e+000
      vertex  2.376878e+000  1.635552e+000  0.000000e+000
      vertex  2.376878e+000  1.635552e+000  2.000000e+000
    endloop
  endfacet
  facet normal  5.406409e-001  8.412535e-001  0.000000e+000
    outer loop
      vertex  2.376878e+000  1.635552e+000  2.000000e+000
      vertex  2.376878e+000  1.635552e+000  0.000000e+000
      vertex  2.017709e+000  1.866376e+000  0.000000e+000
    endloop
  endfacet
  facet normal  5.406409e-001  8.412535e-001  -0.000000e+000
    outer loop
      vertex  2.376878e+000  1.635552e+000  2.000000e+000
      vertex  2.017709e+000  1.866376e+000  0.000000e+000
      vertex  2.017709e+000  1.866376e+000  2.000000e+000
    endloop
  endfacet
  facet normal  7.557494e-001  6.548609e-001  0.000000e+000
    outer loop
      vertex  2.017709e+000  1.866376e+000  2.000000e+000
      vertex  2.017709e+000  1.866376e+000  0.000000e+000
      vertex  1.738120e+000  2.189039e+000  0.000000e+000
    endloop
  endfacet
  facet normal  7.557494e-001  6.548609e-001  -0.000000e+000
    outer loop
      vertex  2.017709e+000  1.866376e+000  2.000000e+000
      vertex  1.738120e+000  2.189039e+000  0.000000e+000
      vertex  1.738120e+000  2.189039e+000  2.000000e+000
    endloop
  endfacet
  facet normal  9.096320e-001  4.154151e-001  0.000000e+000
    outer loop
      vertex  1.738120e+000  2.189039e+000  2.000000e+000
      vertex  1.738120e+000  2.189039e+000  0.000000e+000
      vertex  1.560760e+000  2.577401e+000  0.000000e+000
    endloop
  endfacet
  facet normal  9.096320e-001  4.154151e-001  -0.000000e+000
    outer loop
      vertex  1.738120e+000  2.189039e+000  2.000000e+000
      vertex  1.560760e+000  2.577401e+000  0.000000e+000
      vertex  1.560760e+000  2.577401e+000  2.000000e+000
    endloop
  endfacet
  facet normal  9.898215e-001  1.423147e-001  0.000000e+000
    outer loop
      vertex  1.560760e+000  2.577401e+000  2.000000e+000
      vertex  1.560760e+000  2.577401e+000  0.000000e+000
      vertex  1.500000e+000  3.000000e+000  0.000000e+000
    endloop
  endfacet
  facet normal  9.898215e-001  1.423147e-001  -0.000000e+000
    outer loop
      vertex  1.560760e+000  2.577401e+000  2.000000e+000
      vertex  1.500000e+000  3.000000e+000  0.000000e+000
      vertex  1.500000e+000  3.000000e+000  2.000000e+000
    endloop
  endfacet
  facet normal -1.000000e+000  0.000000e+000  0.000000e+000
    outer loop
      vertex  0.000000e+000  6.000000e+000  2.000000e+000
      vertex  0.000000e+000  6.000000e+000  0.000000e+000
      vertex  0.000000e+000  0.000000e+000  2.000000e+000
    endloop
  endfacet
  facet normal -1.000000e+000  0.000000e+000  0.000000e+000
    outer loop
      vertex  0.000000e+000  0.000000e+000  2.000000e+000
      vertex  0.000000e+000  6.000000e+000  0.000000e+000
      vertex  0.000000e+000  0.000000e+000  0.000000e+000
    endloop
  endfacet
  facet normal  0.000000e+000  1.000000e+000  -0.000000e+000
    outer loop
      vertex  3.100000e+001  6.000000e+000  2.000000e+000
      vertex  3.100000e+001  6.000000e+000  0.000000e+000
      vertex  0.000000e+000  6.000000e+000  2.000000e+000
    endloop
  endfacet
  facet normal  0.000000e+000  1.000000e+000  0.000000e+000
    outer loop
      vertex  0.000000e+000  6.000000e+000  2.000000e+000
      vertex  3.100000e+001  6.000000e+000  0.000000e+000
      vertex  0.000000e+000  6.000000e+000  0.000000e+000
    endloop
  endfacet
  facet normal  1.000000e+000  0.000000e+000  0.000000e+000
    outer loop
      vertex  3.100000e+001  0.000000e+000  2.000000e+000
      vertex  3.100000e+001  0.000000e+000  0.000000e+000
      vertex  3.100000e+001  6.000000e+000  2.000000e+000
    endloop
  endfacet
  facet normal  1.000000e+000  0.000000e+000  0.000000e+000
    outer loop
      vertex  3.100000e+001  6.000000e+000  2.000000e+000
      vertex  3.100000e+001  0.000000e+000  0.000000e+000
      vertex  3.100000e+001  6.000000e+000  0.000000e+000
    endloop
  endfacet
  facet normal  0.000000e+000 -1.000000e+000  0.000000e+000
    outer loop
      vertex  0.000000e+000  0.000000e+000  2.000000e+000
      vertex  0.000000e+000  0.000000e+000  0.000000e+000
      vertex  3.100000e+001  0.000000e+000  2.000000e+000
    endloop
  endfacet
  facet normal  0.000000e+000 -1.000000e+000  -0.000000e+000
    outer loop
      vertex  3.100000e+001  0.000000e+000  2.000000e+000
      vertex  0.000000e+000  0.000000e+000  0.000000e+000
      vertex  3.100000e+001  0.000000e+000  0.000000e+000
    endloop
  endfacet
endsolid CATIA STL
