solid CATIA STL
  facet normal  1.000000e+000  0.000000e+000  -0.000000e+000
    outer loop
      vertex  2.000000e+000  9.017709e+000  6.133625e+000
      vertex  2.000000e+000  9.376878e+000  6.364448e+000
      vertex  2.000000e+000  9.786528e+000  2.351527e+001
    endloop
  endfacet
  facet normal  1.000000e+000  0.000000e+000  0.000000e+000
    outer loop
      vertex  2.000000e+000  0.000000e+000  0.000000e+000
      vertex  2.000000e+000  2.000000e+001  0.000000e+000
      vertex  2.000000e+000  1.021347e+001  3.515268e+000
    endloop
  endfacet
  facet normal  1.000000e+000  0.000000e+000  0.000000e+000
    outer loop
      vertex  2.000000e+000  0.000000e+000  0.000000e+000
      vertex  2.000000e+000  1.021347e+001  3.515268e+000
      vertex  2.000000e+000  9.786528e+000  3.515268e+000
    endloop
  endfacet
  facet normal  1.000000e+000  0.000000e+000  0.000000e+000
    outer loop
      vertex  2.000000e+000  0.000000e+000  0.000000e+000
      vertex  2.000000e+000  9.786528e+000  3.515268e+000
      vertex  2.000000e+000  9.376878e+000  3.635552e+000
    endloop
  endfacet
  facet normal  9.999999e-001  0.000000e+000  0.000000e+000
    outer loop
      vertex  2.000000e+000  0.000000e+000  0.000000e+000
      vertex  2.000000e+000  9.376878e+000  3.635552e+000
      vertex  2.000000e+000  9.017709e+000  3.866376e+000
    endloop
  endfacet
  facet normal  1.000000e+000  0.000000e+000  0.000000e+000
    outer loop
      vertex  2.000000e+000  0.000000e+000  0.000000e+000
      vertex  2.000000e+000  9.017709e+000  3.866376e+000
      vertex  2.000000e+000  8.738120e+000  4.189039e+000
    endloop
  endfacet
  facet normal  1.000000e+000  0.000000e+000  0.000000e+000
    outer loop
      vertex  2.000000e+000  0.000000e+000  0.000000e+000
      vertex  2.000000e+000  8.738120e+000  4.189039e+000
      vertex  2.000000e+000  8.560760e+000  4.577401e+000
    endloop
  endfacet
  facet normal  9.999999e-001  0.000000e+000  0.000000e+000
    outer loop
      vertex  2.000000e+000  0.000000e+000  0.000000e+000
      vertex  2.000000e+000  8.560760e+000  4.577401e+000
      vertex  2.000000e+000  8.500000e+000  5.000000e+000
    endloop
  endfacet
  facet normal  1.000000e+000  0.000000e+000  -0.000000e+000
    outer loop
      vertex  2.000000e+000  0.000000e+000  0.000000e+000
      vertex  2.000000e+000  8.500000e+000  5.000000e+000
      vertex  2.000000e+000  8.560760e+000  5.422599e+000
    endloop
  endfacet
  facet normal  1.000000e+000  0.000000e+000  -0.000000e+000
    outer loop
      vertex  2.000000e+000  0.000000e+000  0.000000e+000
      vertex  2.000000e+000  8.560760e+000  5.422599e+000
      vertex  2.000000e+000  8.738120e+000  5.810961e+000
    endloop
  endfacet
  facet normal  1.000000e+000  0.000000e+000  -0.000000e+000
    outer loop
      vertex  2.000000e+000  0.000000e+000  0.000000e+000
      vertex  2.000000e+000  8.738120e+000  5.810961e+000
      vertex  2.000000e+000  9.017709e+000  6.133625e+000
    endloop
  endfacet
  facet normal  1.000000e+000  0.000000e+000  -0.000000e+000
    outer loop
      vertex  2.000000e+000  0.000000e+000  0.000000e+000
      vertex  2.000000e+000  9.017709e+000  6.133625e+000
      vertex  2.000000e+000  9.786528e+000  2.351527e+001
    endloop
  endfacet
  facet normal  1.000000e+000  0.000000e+000  0.000000e+000
    outer loop
      vertex  2.000000e+000  0.000000e+000  0.000000e+000
      vertex  2.000000e+000  9.786528e+000  2.351527e+001
      vertex  2.000000e+000  9.376878e+000  2.363555e+001
    endloop
  endfacet
  facet normal  9.999999e-001  0.000000e+000  0.000000e+000
    outer loop
      vertex  2.000000e+000  0.000000e+000  0.000000e+000
      vertex  2.000000e+000  9.376878e+000  2.363555e+001
      vertex  2.000000e+000  9.017709e+000  2.386637e+001
    endloop
  endfacet
  facet normal  1.000000e+000  0.000000e+000  0.000000e+000
    outer loop
      vertex  2.000000e+000  0.000000e+000  0.000000e+000
      vertex  2.000000e+000  9.017709e+000  2.386637e+001
      vertex  2.000000e+000  8.738120e+000  2.418904e+001
    endloop
  endfacet
  facet normal  1.000000e+000  0.000000e+000  0.000000e+000
    outer loop
      vertex  2.000000e+000  0.000000e+000  0.000000e+000
      vertex  2.000000e+000  8.738120e+000  2.418904e+001
      vertex  2.000000e+000  8.560760e+000  2.457740e+001
    endloop
  endfacet
  facet normal  1.000000e+000  0.000000e+000  0.000000e+000
    outer loop
      vertex  2.000000e+000  0.000000e+000  0.000000e+000
      vertex  2.000000e+000  8.560760e+000  2.457740e+001
      vertex  2.000000e+000  8.500000e+000  2.500000e+001
    endloop
  endfacet
  facet normal  1.000000e+000  0.000000e+000  -0.000000e+000
    outer loop
      vertex  2.000000e+000  0.000000e+000  0.000000e+000
      vertex  2.000000e+000  8.500000e+000  2.500000e+001
      vertex  2.000000e+000  8.560760e+000  2.542260e+001
    endloop
  endfacet
  facet normal  1.000000e+000  0.000000e+000  0.000000e+000
    outer loop
      vertex  2.000000e+000  0.000000e+000  0.000000e+000
      vertex  2.000000e+000  8.560760e+000  2.542260e+001
      vertex  2.000000e+000  1.421085e-014  3.000000e+001
    endloop
  endfacet
  facet normal  1.000000e+000  0.000000e+000  -0.000000e+000
    outer loop
      vertex  2.000000e+000  1.421085e-014  3.000000e+001
      vertex  2.000000e+000  8.560760e+000  2.542260e+001
      vertex  2.000000e+000  8.738120e+000  2.581096e+001
    endloop
  endfacet
  facet normal  1.000000e+000  0.000000e+000  -0.000000e+000
    outer loop
      vertex  2.000000e+000  1.421085e-014  3.000000e+001
      vertex  2.000000e+000  8.738120e+000  2.581096e+001
      vertex  2.000000e+000  9.017709e+000  2.613363e+001
    endloop
  endfacet
  facet normal  1.000000e+000  0.000000e+000  -0.000000e+000
    outer loop
      vertex  2.000000e+000  1.421085e-014  3.000000e+001
      vertex  2.000000e+000  9.017709e+000  2.613363e+001
      vertex  2.000000e+000  9.376878e+000  2.636445e+001
    endloop
  endfacet
  facet normal  1.000000e+000  0.000000e+000  -0.000000e+000
    outer loop
      vertex  2.000000e+000  1.421085e-014  3.000000e+001
      vertex  2.000000e+000  9.376878e+000  2.636445e+001
      vertex  2.000000e+000  9.786528e+000  2.648473e+001
    endloop
  endfacet
  facet normal  1.000000e+000  0.000000e+000  -0.000000e+000
    outer loop
      vertex  2.000000e+000  1.421085e-014  3.000000e+001
      vertex  2.000000e+000  9.786528e+000  2.648473e+001
      vertex  2.000000e+000  1.021347e+001  2.648473e+001
    endloop
  endfacet
  facet normal  1.000000e+000  0.000000e+000  -0.000000e+000
    outer loop
      vertex  2.000000e+000  1.421085e-014  3.000000e+001
      vertex  2.000000e+000  1.021347e+001  2.648473e+001
      vertex  2.000000e+000  2.000000e+001  3.000000e+001
    endloop
  endfacet
  facet normal  1.000000e+000  0.000000e+000  0.000000e+000
    outer loop
      vertex  2.000000e+000  2.000000e+001  0.000000e+000
      vertex  2.000000e+000  1.098229e+001  6.133625e+000
      vertex  2.000000e+000  1.126188e+001  5.810961e+000
    endloop
  endfacet
  facet normal  1.000000e+000  0.000000e+000  0.000000e+000
    outer loop
      vertex  2.000000e+000  2.000000e+001  0.000000e+000
      vertex  2.000000e+000  1.126188e+001  5.810961e+000
      vertex  2.000000e+000  1.143924e+001  5.422599e+000
    endloop
  endfacet
  facet normal  1.000000e+000  0.000000e+000  0.000000e+000
    outer loop
      vertex  2.000000e+000  2.000000e+001  0.000000e+000
      vertex  2.000000e+000  1.143924e+001  5.422599e+000
      vertex  2.000000e+000  1.150000e+001  5.000000e+000
    endloop
  endfacet
  facet normal  9.999999e-001  0.000000e+000  0.000000e+000
    outer loop
      vertex  2.000000e+000  2.000000e+001  0.000000e+000
      vertex  2.000000e+000  1.150000e+001  5.000000e+000
      vertex  2.000000e+000  1.143924e+001  4.577401e+000
    endloop
  endfacet
  facet normal  1.000000e+000  0.000000e+000  0.000000e+000
    outer loop
      vertex  2.000000e+000  2.000000e+001  0.000000e+000
      vertex  2.000000e+000  1.143924e+001  4.577401e+000
      vertex  2.000000e+000  1.126188e+001  4.189039e+000
    endloop
  endfacet
  facet normal  1.000000e+000  0.000000e+000  0.000000e+000
    outer loop
      vertex  2.000000e+000  2.000000e+001  0.000000e+000
      vertex  2.000000e+000  1.126188e+001  4.189039e+000
      vertex  2.000000e+000  1.098229e+001  3.866376e+000
    endloop
  endfacet
  facet normal  9.999999e-001  0.000000e+000  0.000000e+000
    outer loop
      vertex  2.000000e+000  2.000000e+001  0.000000e+000
      vertex  2.000000e+000  1.098229e+001  3.866376e+000
      vertex  2.000000e+000  1.062312e+001  3.635552e+000
    endloop
  endfacet
  facet normal  1.000000e+000  0.000000e+000  0.000000e+000
    outer loop
      vertex  2.000000e+000  2.000000e+001  0.000000e+000
      vertex  2.000000e+000  1.062312e+001  3.635552e+000
      vertex  2.000000e+000  1.021347e+001  3.515268e+000
    endloop
  endfacet
  facet normal  1.000000e+000  -0.000000e+000  0.000000e+000
    outer loop
      vertex  2.000000e+000  2.000000e+001  1.250000e+001
      vertex  2.000000e+000  1.250000e+001  1.250000e+001
      vertex  2.000000e+000  1.021347e+001  6.484732e+000
    endloop
  endfacet
  facet normal  1.000000e+000  -0.000000e+000  0.000000e+000
    outer loop
      vertex  2.000000e+000  2.000000e+001  1.250000e+001
      vertex  2.000000e+000  1.021347e+001  6.484732e+000
      vertex  2.000000e+000  1.062312e+001  6.364448e+000
    endloop
  endfacet
  facet normal  1.000000e+000  -0.000000e+000  0.000000e+000
    outer loop
      vertex  2.000000e+000  2.000000e+001  1.250000e+001
      vertex  2.000000e+000  1.062312e+001  6.364448e+000
      vertex  2.000000e+000  1.098229e+001  6.133625e+000
    endloop
  endfacet
  facet normal  1.000000e+000  -0.000000e+000  0.000000e+000
    outer loop
      vertex  2.000000e+000  2.000000e+001  1.250000e+001
      vertex  2.000000e+000  1.098229e+001  6.133625e+000
      vertex  2.000000e+000  2.000000e+001  0.000000e+000
    endloop
  endfacet
  facet normal  1.000000e+000  0.000000e+000  0.000000e+000
    outer loop
      vertex  2.000000e+000  2.000000e+001  1.750000e+001
      vertex  2.000000e+000  1.098229e+001  2.613363e+001
      vertex  2.000000e+000  1.126188e+001  2.581096e+001
    endloop
  endfacet
  facet normal  1.000000e+000  0.000000e+000  0.000000e+000
    outer loop
      vertex  2.000000e+000  2.000000e+001  1.750000e+001
      vertex  2.000000e+000  1.126188e+001  2.581096e+001
      vertex  2.000000e+000  1.143924e+001  2.542260e+001
    endloop
  endfacet
  facet normal  1.000000e+000  0.000000e+000  0.000000e+000
    outer loop
      vertex  2.000000e+000  2.000000e+001  1.750000e+001
      vertex  2.000000e+000  1.143924e+001  2.542260e+001
      vertex  2.000000e+000  1.150000e+001  2.500000e+001
    endloop
  endfacet
  facet normal  1.000000e+000  0.000000e+000  0.000000e+000
    outer loop
      vertex  2.000000e+000  2.000000e+001  1.750000e+001
      vertex  2.000000e+000  1.150000e+001  2.500000e+001
      vertex  2.000000e+000  1.143924e+001  2.457740e+001
    endloop
  endfacet
  facet normal  1.000000e+000  0.000000e+000  0.000000e+000
    outer loop
      vertex  2.000000e+000  2.000000e+001  1.750000e+001
      vertex  2.000000e+000  1.143924e+001  2.457740e+001
      vertex  2.000000e+000  1.126188e+001  2.418904e+001
    endloop
  endfacet
  facet normal  1.000000e+000  0.000000e+000  0.000000e+000
    outer loop
      vertex  2.000000e+000  2.000000e+001  1.750000e+001
      vertex  2.000000e+000  1.126188e+001  2.418904e+001
      vertex  2.000000e+000  1.098229e+001  2.386637e+001
    endloop
  endfacet
  facet normal  1.000000e+000  0.000000e+000  0.000000e+000
    outer loop
      vertex  2.000000e+000  2.000000e+001  1.750000e+001
      vertex  2.000000e+000  1.098229e+001  2.386637e+001
      vertex  2.000000e+000  1.062312e+001  2.363555e+001
    endloop
  endfacet
  facet normal  1.000000e+000  0.000000e+000  0.000000e+000
    outer loop
      vertex  2.000000e+000  2.000000e+001  1.750000e+001
      vertex  2.000000e+000  1.062312e+001  2.363555e+001
      vertex  2.000000e+000  1.021347e+001  2.351527e+001
    endloop
  endfacet
  facet normal  1.000000e+000  0.000000e+000  0.000000e+000
    outer loop
      vertex  2.000000e+000  2.000000e+001  1.750000e+001
      vertex  2.000000e+000  1.021347e+001  2.351527e+001
      vertex  2.000000e+000  1.250000e+001  1.750000e+001
    endloop
  endfacet
  facet normal  1.000000e+000  -0.000000e+000  0.000000e+000
    outer loop
      vertex  2.000000e+000  2.000000e+001  3.000000e+001
      vertex  2.000000e+000  1.021347e+001  2.648473e+001
      vertex  2.000000e+000  1.062312e+001  2.636445e+001
    endloop
  endfacet
  facet normal  1.000000e+000  -0.000000e+000  0.000000e+000
    outer loop
      vertex  2.000000e+000  2.000000e+001  3.000000e+001
      vertex  2.000000e+000  1.062312e+001  2.636445e+001
      vertex  2.000000e+000  1.098229e+001  2.613363e+001
    endloop
  endfacet
  facet normal  1.000000e+000  -0.000000e+000  0.000000e+000
    outer loop
      vertex  2.000000e+000  2.000000e+001  3.000000e+001
      vertex  2.000000e+000  1.098229e+001  2.613363e+001
      vertex  2.000000e+000  2.000000e+001  1.750000e+001
    endloop
  endfacet
  facet normal  1.000000e+000  0.000000e+000  0.000000e+000
    outer loop
      vertex  2.000000e+000  1.250000e+001  1.250000e+001
      vertex  2.000000e+000  1.250000e+001  1.750000e+001
      vertex  2.000000e+000  1.021347e+001  6.484732e+000
    endloop
  endfacet
  facet normal  1.000000e+000  0.000000e+000  0.000000e+000
    outer loop
      vertex  2.000000e+000  1.021347e+001  6.484732e+000
      vertex  2.000000e+000  1.250000e+001  1.750000e+001
      vertex  2.000000e+000  1.021347e+001  2.351527e+001
    endloop
  endfacet
  facet normal  1.000000e+000  0.000000e+000  0.000000e+000
    outer loop
      vertex  2.000000e+000  1.021347e+001  6.484732e+000
      vertex  2.000000e+000  1.021347e+001  2.351527e+001
      vertex  2.000000e+000  9.786528e+000  6.484732e+000
    endloop
  endfacet
  facet normal  1.000000e+000  0.000000e+000  0.000000e+000
    outer loop
      vertex  2.000000e+000  9.786528e+000  6.484732e+000
      vertex  2.000000e+000  1.021347e+001  2.351527e+001
      vertex  2.000000e+000  9.786528e+000  2.351527e+001
    endloop
  endfacet
  facet normal  1.000000e+000  0.000000e+000  0.000000e+000
    outer loop
      vertex  2.000000e+000  9.786528e+000  6.484732e+000
      vertex  2.000000e+000  9.786528e+000  2.351527e+001
      vertex  2.000000e+000  9.376878e+000  6.364448e+000
    endloop
  endfacet
  facet normal -1.000000e+000  -0.000000e+000  0.000000e+000
    outer loop
      vertex  0.000000e+000  9.786528e+000  2.351527e+001
      vertex  0.000000e+000  9.376878e+000  6.364448e+000
      vertex  0.000000e+000  9.017709e+000  6.133625e+000
    endloop
  endfacet
  facet normal -1.000000e+000  0.000000e+000  -0.000000e+000
    outer loop
      vertex  0.000000e+000  0.000000e+000  0.000000e+000
      vertex  0.000000e+000  1.421085e-014  3.000000e+001
      vertex  0.000000e+000  8.560760e+000  2.542260e+001
    endloop
  endfacet
  facet normal -1.000000e+000  0.000000e+000  0.000000e+000
    outer loop
      vertex  0.000000e+000  0.000000e+000  0.000000e+000
      vertex  0.000000e+000  8.560760e+000  2.542260e+001
      vertex  0.000000e+000  8.500000e+000  2.500000e+001
    endloop
  endfacet
  facet normal -1.000000e+000  0.000000e+000  -0.000000e+000
    outer loop
      vertex  0.000000e+000  0.000000e+000  0.000000e+000
      vertex  0.000000e+000  8.500000e+000  2.500000e+001
      vertex  0.000000e+000  8.560760e+000  2.457740e+001
    endloop
  endfacet
  facet normal -1.000000e+000  0.000000e+000  -0.000000e+000
    outer loop
      vertex  0.000000e+000  0.000000e+000  0.000000e+000
      vertex  0.000000e+000  8.560760e+000  2.457740e+001
      vertex  0.000000e+000  8.738120e+000  2.418904e+001
    endloop
  endfacet
  facet normal -1.000000e+000  0.000000e+000  -0.000000e+000
    outer loop
      vertex  0.000000e+000  0.000000e+000  0.000000e+000
      vertex  0.000000e+000  8.738120e+000  2.418904e+001
      vertex  0.000000e+000  9.017709e+000  2.386637e+001
    endloop
  endfacet
  facet normal -9.999999e-001  0.000000e+000  -0.000000e+000
    outer loop
      vertex  0.000000e+000  0.000000e+000  0.000000e+000
      vertex  0.000000e+000  9.017709e+000  2.386637e+001
      vertex  0.000000e+000  9.376878e+000  2.363555e+001
    endloop
  endfacet
  facet normal -1.000000e+000  0.000000e+000  -0.000000e+000
    outer loop
      vertex  0.000000e+000  0.000000e+000  0.000000e+000
      vertex  0.000000e+000  9.376878e+000  2.363555e+001
      vertex  0.000000e+000  9.786528e+000  2.351527e+001
    endloop
  endfacet
  facet normal -1.000000e+000  0.000000e+000  0.000000e+000
    outer loop
      vertex  0.000000e+000  0.000000e+000  0.000000e+000
      vertex  0.000000e+000  9.786528e+000  2.351527e+001
      vertex  0.000000e+000  9.017709e+000  6.133625e+000
    endloop
  endfacet
  facet normal -1.000000e+000  0.000000e+000  0.000000e+000
    outer loop
      vertex  0.000000e+000  0.000000e+000  0.000000e+000
      vertex  0.000000e+000  9.017709e+000  6.133625e+000
      vertex  0.000000e+000  8.738120e+000  5.810961e+000
    endloop
  endfacet
  facet normal -1.000000e+000  0.000000e+000  0.000000e+000
    outer loop
      vertex  0.000000e+000  0.000000e+000  0.000000e+000
      vertex  0.000000e+000  8.738120e+000  5.810961e+000
      vertex  0.000000e+000  8.560760e+000  5.422599e+000
    endloop
  endfacet
  facet normal -1.000000e+000  0.000000e+000  0.000000e+000
    outer loop
      vertex  0.000000e+000  0.000000e+000  0.000000e+000
      vertex  0.000000e+000  8.560760e+000  5.422599e+000
      vertex  0.000000e+000  8.500000e+000  5.000000e+000
    endloop
  endfacet
  facet normal -9.999999e-001  0.000000e+000  -0.000000e+000
    outer loop
      vertex  0.000000e+000  0.000000e+000  0.000000e+000
      vertex  0.000000e+000  8.500000e+000  5.000000e+000
      vertex  0.000000e+000  8.560760e+000  4.577401e+000
    endloop
  endfacet
  facet normal -1.000000e+000  0.000000e+000  -0.000000e+000
    outer loop
      vertex  0.000000e+000  0.000000e+000  0.000000e+000
      vertex  0.000000e+000  8.560760e+000  4.577401e+000
      vertex  0.000000e+000  8.738120e+000  4.189039e+000
    endloop
  endfacet
  facet normal -1.000000e+000  0.000000e+000  -0.000000e+000
    outer loop
      vertex  0.000000e+000  0.000000e+000  0.000000e+000
      vertex  0.000000e+000  8.738120e+000  4.189039e+000
      vertex  0.000000e+000  9.017709e+000  3.866376e+000
    endloop
  endfacet
  facet normal -9.999999e-001  0.000000e+000  -0.000000e+000
    outer loop
      vertex  0.000000e+000  0.000000e+000  0.000000e+000
      vertex  0.000000e+000  9.017709e+000  3.866376e+000
      vertex  0.000000e+000  9.376878e+000  3.635552e+000
    endloop
  endfacet
  facet normal -1.000000e+000  0.000000e+000  -0.000000e+000
    outer loop
      vertex  0.000000e+000  0.000000e+000  0.000000e+000
      vertex  0.000000e+000  9.376878e+000  3.635552e+000
      vertex  0.000000e+000  9.786528e+000  3.515268e+000
    endloop
  endfacet
  facet normal -1.000000e+000  0.000000e+000  -0.000000e+000
    outer loop
      vertex  0.000000e+000  0.000000e+000  0.000000e+000
      vertex  0.000000e+000  9.786528e+000  3.515268e+000
      vertex  0.000000e+000  1.021347e+001  3.515268e+000
    endloop
  endfacet
  facet normal -1.000000e+000  0.000000e+000  -0.000000e+000
    outer loop
      vertex  0.000000e+000  0.000000e+000  0.000000e+000
      vertex  0.000000e+000  1.021347e+001  3.515268e+000
      vertex  0.000000e+000  2.000000e+001  0.000000e+000
    endloop
  endfacet
  facet normal -1.000000e+000  -0.000000e+000  0.000000e+000
    outer loop
      vertex  0.000000e+000  1.421085e-014  3.000000e+001
      vertex  0.000000e+000  2.000000e+001  3.000000e+001
      vertex  0.000000e+000  1.021347e+001  2.648473e+001
    endloop
  endfacet
  facet normal -1.000000e+000  0.000000e+000  0.000000e+000
    outer loop
      vertex  0.000000e+000  1.421085e-014  3.000000e+001
      vertex  0.000000e+000  1.021347e+001  2.648473e+001
      vertex  0.000000e+000  9.786528e+000  2.648473e+001
    endloop
  endfacet
  facet normal -1.000000e+000  -0.000000e+000  0.000000e+000
    outer loop
      vertex  0.000000e+000  1.421085e-014  3.000000e+001
      vertex  0.000000e+000  9.786528e+000  2.648473e+001
      vertex  0.000000e+000  9.376878e+000  2.636445e+001
    endloop
  endfacet
  facet normal -1.000000e+000  -0.000000e+000  0.000000e+000
    outer loop
      vertex  0.000000e+000  1.421085e-014  3.000000e+001
      vertex  0.000000e+000  9.376878e+000  2.636445e+001
      vertex  0.000000e+000  9.017709e+000  2.613363e+001
    endloop
  endfacet
  facet normal -1.000000e+000  -0.000000e+000  0.000000e+000
    outer loop
      vertex  0.000000e+000  1.421085e-014  3.000000e+001
      vertex  0.000000e+000  9.017709e+000  2.613363e+001
      vertex  0.000000e+000  8.738120e+000  2.581096e+001
    endloop
  endfacet
  facet normal -1.000000e+000  -0.000000e+000  0.000000e+000
    outer loop
      vertex  0.000000e+000  1.421085e-014  3.000000e+001
      vertex  0.000000e+000  8.738120e+000  2.581096e+001
      vertex  0.000000e+000  8.560760e+000  2.542260e+001
    endloop
  endfacet
  facet normal -1.000000e+000  0.000000e+000  0.000000e+000
    outer loop
      vertex  0.000000e+000  2.000000e+001  0.000000e+000
      vertex  0.000000e+000  1.021347e+001  3.515268e+000
      vertex  0.000000e+000  1.062312e+001  3.635552e+000
    endloop
  endfacet
  facet normal -9.999999e-001  0.000000e+000  0.000000e+000
    outer loop
      vertex  0.000000e+000  2.000000e+001  0.000000e+000
      vertex  0.000000e+000  1.062312e+001  3.635552e+000
      vertex  0.000000e+000  1.098229e+001  3.866376e+000
    endloop
  endfacet
  facet normal -1.000000e+000  0.000000e+000  0.000000e+000
    outer loop
      vertex  0.000000e+000  2.000000e+001  0.000000e+000
      vertex  0.000000e+000  1.098229e+001  3.866376e+000
      vertex  0.000000e+000  1.126188e+001  4.189039e+000
    endloop
  endfacet
  facet normal -1.000000e+000  0.000000e+000  0.000000e+000
    outer loop
      vertex  0.000000e+000  2.000000e+001  0.000000e+000
      vertex  0.000000e+000  1.126188e+001  4.189039e+000
      vertex  0.000000e+000  1.143924e+001  4.577401e+000
    endloop
  endfacet
  facet normal -9.999999e-001  0.000000e+000  0.000000e+000
    outer loop
      vertex  0.000000e+000  2.000000e+001  0.000000e+000
      vertex  0.000000e+000  1.143924e+001  4.577401e+000
      vertex  0.000000e+000  1.150000e+001  5.000000e+000
    endloop
  endfacet
  facet normal -1.000000e+000  0.000000e+000  0.000000e+000
    outer loop
      vertex  0.000000e+000  2.000000e+001  0.000000e+000
      vertex  0.000000e+000  1.150000e+001  5.000000e+000
      vertex  0.000000e+000  1.143924e+001  5.422599e+000
    endloop
  endfacet
  facet normal -1.000000e+000  0.000000e+000  0.000000e+000
    outer loop
      vertex  0.000000e+000  2.000000e+001  0.000000e+000
      vertex  0.000000e+000  1.143924e+001  5.422599e+000
      vertex  0.000000e+000  1.126188e+001  5.810961e+000
    endloop
  endfacet
  facet normal -1.000000e+000  0.000000e+000  0.000000e+000
    outer loop
      vertex  0.000000e+000  2.000000e+001  0.000000e+000
      vertex  0.000000e+000  1.126188e+001  5.810961e+000
      vertex  0.000000e+000  1.098229e+001  6.133625e+000
    endloop
  endfacet
  facet normal -1.000000e+000  0.000000e+000  0.000000e+000
    outer loop
      vertex  0.000000e+000  2.000000e+001  1.250000e+001
      vertex  0.000000e+000  2.000000e+001  0.000000e+000
      vertex  0.000000e+000  1.098229e+001  6.133625e+000
    endloop
  endfacet
  facet normal -1.000000e+000  0.000000e+000  0.000000e+000
    outer loop
      vertex  0.000000e+000  2.000000e+001  1.250000e+001
      vertex  0.000000e+000  1.098229e+001  6.133625e+000
      vertex  0.000000e+000  1.062312e+001  6.364448e+000
    endloop
  endfacet
  facet normal -1.000000e+000  0.000000e+000  0.000000e+000
    outer loop
      vertex  0.000000e+000  2.000000e+001  1.250000e+001
      vertex  0.000000e+000  1.062312e+001  6.364448e+000
      vertex  0.000000e+000  1.021347e+001  6.484732e+000
    endloop
  endfacet
  facet normal -1.000000e+000  0.000000e+000  0.000000e+000
    outer loop
      vertex  0.000000e+000  2.000000e+001  1.250000e+001
      vertex  0.000000e+000  1.021347e+001  6.484732e+000
      vertex  0.000000e+000  1.250000e+001  1.250000e+001
    endloop
  endfacet
  facet normal -1.000000e+000  0.000000e+000  0.000000e+000
    outer loop
      vertex  0.000000e+000  2.000000e+001  1.750000e+001
      vertex  0.000000e+000  1.250000e+001  1.750000e+001
      vertex  0.000000e+000  1.021347e+001  2.351527e+001
    endloop
  endfacet
  facet normal -1.000000e+000  0.000000e+000  0.000000e+000
    outer loop
      vertex  0.000000e+000  2.000000e+001  1.750000e+001
      vertex  0.000000e+000  1.021347e+001  2.351527e+001
      vertex  0.000000e+000  1.062312e+001  2.363555e+001
    endloop
  endfacet
  facet normal -1.000000e+000  0.000000e+000  0.000000e+000
    outer loop
      vertex  0.000000e+000  2.000000e+001  1.750000e+001
      vertex  0.000000e+000  1.062312e+001  2.363555e+001
      vertex  0.000000e+000  1.098229e+001  2.386637e+001
    endloop
  endfacet
  facet normal -1.000000e+000  0.000000e+000  0.000000e+000
    outer loop
      vertex  0.000000e+000  2.000000e+001  1.750000e+001
      vertex  0.000000e+000  1.098229e+001  2.386637e+001
      vertex  0.000000e+000  1.126188e+001  2.418904e+001
    endloop
  endfacet
  facet normal -1.000000e+000  0.000000e+000  0.000000e+000
    outer loop
      vertex  0.000000e+000  2.000000e+001  1.750000e+001
      vertex  0.000000e+000  1.126188e+001  2.418904e+001
      vertex  0.000000e+000  1.143924e+001  2.457740e+001
    endloop
  endfacet
  facet normal -1.000000e+000  0.000000e+000  0.000000e+000
    outer loop
      vertex  0.000000e+000  2.000000e+001  1.750000e+001
      vertex  0.000000e+000  1.143924e+001  2.457740e+001
      vertex  0.000000e+000  1.150000e+001  2.500000e+001
    endloop
  endfacet
  facet normal -1.000000e+000  0.000000e+000  0.000000e+000
    outer loop
      vertex  0.000000e+000  2.000000e+001  1.750000e+001
      vertex  0.000000e+000  1.150000e+001  2.500000e+001
      vertex  0.000000e+000  1.143924e+001  2.542260e+001
    endloop
  endfacet
  facet normal -1.000000e+000  0.000000e+000  0.000000e+000
    outer loop
      vertex  0.000000e+000  2.000000e+001  1.750000e+001
      vertex  0.000000e+000  1.143924e+001  2.542260e+001
      vertex  0.000000e+000  1.126188e+001  2.581096e+001
    endloop
  endfacet
  facet normal -1.000000e+000  0.000000e+000  0.000000e+000
    outer loop
      vertex  0.000000e+000  2.000000e+001  1.750000e+001
      vertex  0.000000e+000  1.126188e+001  2.581096e+001
      vertex  0.000000e+000  1.098229e+001  2.613363e+001
    endloop
  endfacet
  facet normal -1.000000e+000  0.000000e+000  0.000000e+000
    outer loop
      vertex  0.000000e+000  2.000000e+001  3.000000e+001
      vertex  0.000000e+000  2.000000e+001  1.750000e+001
      vertex  0.000000e+000  1.098229e+001  2.613363e+001
    endloop
  endfacet
  facet normal -1.000000e+000  0.000000e+000  0.000000e+000
    outer loop
      vertex  0.000000e+000  2.000000e+001  3.000000e+001
      vertex  0.000000e+000  1.098229e+001  2.613363e+001
      vertex  0.000000e+000  1.062312e+001  2.636445e+001
    endloop
  endfacet
  facet normal -1.000000e+000  0.000000e+000  0.000000e+000
    outer loop
      vertex  0.000000e+000  2.000000e+001  3.000000e+001
      vertex  0.000000e+000  1.062312e+001  2.636445e+001
      vertex  0.000000e+000  1.021347e+001  2.648473e+001
    endloop
  endfacet
  facet normal -1.000000e+000  0.000000e+000  -0.000000e+000
    outer loop
      vertex  0.000000e+000  9.376878e+000  6.364448e+000
      vertex  0.000000e+000  9.786528e+000  2.351527e+001
      vertex  0.000000e+000  9.786528e+000  6.484732e+000
    endloop
  endfacet
  facet normal -1.000000e+000  0.000000e+000  0.000000e+000
    outer loop
      vertex  0.000000e+000  9.786528e+000  6.484732e+000
      vertex  0.000000e+000  9.786528e+000  2.351527e+001
      vertex  0.000000e+000  1.021347e+001  2.351527e+001
    endloop
  endfacet
  facet normal -1.000000e+000  0.000000e+000  -0.000000e+000
    outer loop
      vertex  0.000000e+000  9.786528e+000  6.484732e+000
      vertex  0.000000e+000  1.021347e+001  2.351527e+001
      vertex  0.000000e+000  1.021347e+001  6.484732e+000
    endloop
  endfacet
  facet normal -1.000000e+000  0.000000e+000  0.000000e+000
    outer loop
      vertex  0.000000e+000  1.021347e+001  6.484732e+000
      vertex  0.000000e+000  1.021347e+001  2.351527e+001
      vertex  0.000000e+000  1.250000e+001  1.750000e+001
    endloop
  endfacet
  facet normal -1.000000e+000  0.000000e+000  -0.000000e+000
    outer loop
      vertex  0.000000e+000  1.021347e+001  6.484732e+000
      vertex  0.000000e+000  1.250000e+001  1.750000e+001
      vertex  0.000000e+000  1.250000e+001  1.250000e+001
    endloop
  endfacet
  facet normal  0.000000e+000  2.817326e-001 -9.594930e-001
    outer loop
      vertex  0.000000e+000  9.786528e+000  6.484732e+000
      vertex  2.000000e+000  9.376878e+000  6.364448e+000
      vertex  0.000000e+000  9.376878e+000  6.364448e+000
    endloop
  endfacet
  facet normal  0.000000e+000  5.406402e-001 -8.412540e-001
    outer loop
      vertex  0.000000e+000  9.376878e+000  6.364448e+000
      vertex  2.000000e+000  9.376878e+000  6.364448e+000
      vertex  2.000000e+000  9.017709e+000  6.133625e+000
    endloop
  endfacet
  facet normal  0.000000e+000  5.406402e-001 -8.412540e-001
    outer loop
      vertex  0.000000e+000  9.376878e+000  6.364448e+000
      vertex  2.000000e+000  9.017709e+000  6.133625e+000
      vertex  0.000000e+000  9.017709e+000  6.133625e+000
    endloop
  endfacet
  facet normal  0.000000e+000  7.557503e-001 -6.548598e-001
    outer loop
      vertex  0.000000e+000  9.017709e+000  6.133625e+000
      vertex  2.000000e+000  9.017709e+000  6.133625e+000
      vertex  2.000000e+000  8.738120e+000  5.810961e+000
    endloop
  endfacet
  facet normal  0.000000e+000  7.557503e-001 -6.548598e-001
    outer loop
      vertex  0.000000e+000  9.017709e+000  6.133625e+000
      vertex  2.000000e+000  8.738120e+000  5.810961e+000
      vertex  0.000000e+000  8.738120e+000  5.810961e+000
    endloop
  endfacet
  facet normal  0.000000e+000  9.096316e-001 -4.154158e-001
    outer loop
      vertex  0.000000e+000  8.738120e+000  5.810961e+000
      vertex  2.000000e+000  8.738120e+000  5.810961e+000
      vertex  2.000000e+000  8.560760e+000  5.422599e+000
    endloop
  endfacet
  facet normal  0.000000e+000  9.096316e-001 -4.154158e-001
    outer loop
      vertex  0.000000e+000  8.738120e+000  5.810961e+000
      vertex  2.000000e+000  8.560760e+000  5.422599e+000
      vertex  0.000000e+000  8.560760e+000  5.422599e+000
    endloop
  endfacet
  facet normal  0.000000e+000  9.898215e-001 -1.423147e-001
    outer loop
      vertex  0.000000e+000  8.560760e+000  5.422599e+000
      vertex  2.000000e+000  8.560760e+000  5.422599e+000
      vertex  2.000000e+000  8.500000e+000  5.000000e+000
    endloop
  endfacet
  facet normal  0.000000e+000  9.898215e-001 -1.423147e-001
    outer loop
      vertex  0.000000e+000  8.560760e+000  5.422599e+000
      vertex  2.000000e+000  8.500000e+000  5.000000e+000
      vertex  0.000000e+000  8.500000e+000  5.000000e+000
    endloop
  endfacet
  facet normal  0.000000e+000  2.817326e-001 -9.594930e-001
    outer loop
      vertex  2.000000e+000  9.376878e+000  6.364448e+000
      vertex  0.000000e+000  9.786528e+000  6.484732e+000
      vertex  2.000000e+000  9.786528e+000  6.484732e+000
    endloop
  endfacet
  facet normal  0.000000e+000  0.000000e+000 -1.000000e+000
    outer loop
      vertex  2.000000e+000  9.786528e+000  6.484732e+000
      vertex  0.000000e+000  9.786528e+000  6.484732e+000
      vertex  0.000000e+000  1.021347e+001  6.484732e+000
    endloop
  endfacet
  facet normal  0.000000e+000  0.000000e+000 -1.000000e+000
    outer loop
      vertex  2.000000e+000  9.786528e+000  6.484732e+000
      vertex  0.000000e+000  1.021347e+001  6.484732e+000
      vertex  2.000000e+000  1.021347e+001  6.484732e+000
    endloop
  endfacet
  facet normal  -0.000000e+000 -2.817326e-001 -9.594930e-001
    outer loop
      vertex  2.000000e+000  1.021347e+001  6.484732e+000
      vertex  0.000000e+000  1.021347e+001  6.484732e+000
      vertex  0.000000e+000  1.062312e+001  6.364448e+000
    endloop
  endfacet
  facet normal  0.000000e+000 -2.817326e-001 -9.594930e-001
    outer loop
      vertex  2.000000e+000  1.021347e+001  6.484732e+000
      vertex  0.000000e+000  1.062312e+001  6.364448e+000
      vertex  2.000000e+000  1.062312e+001  6.364448e+000
    endloop
  endfacet
  facet normal  -0.000000e+000 -5.406402e-001 -8.412540e-001
    outer loop
      vertex  2.000000e+000  1.062312e+001  6.364448e+000
      vertex  0.000000e+000  1.062312e+001  6.364448e+000
      vertex  0.000000e+000  1.098229e+001  6.133625e+000
    endloop
  endfacet
  facet normal  0.000000e+000 -5.406402e-001 -8.412540e-001
    outer loop
      vertex  2.000000e+000  1.062312e+001  6.364448e+000
      vertex  0.000000e+000  1.098229e+001  6.133625e+000
      vertex  2.000000e+000  1.098229e+001  6.133625e+000
    endloop
  endfacet
  facet normal  -0.000000e+000 -7.557503e-001 -6.548598e-001
    outer loop
      vertex  2.000000e+000  1.098229e+001  6.133625e+000
      vertex  0.000000e+000  1.098229e+001  6.133625e+000
      vertex  0.000000e+000  1.126188e+001  5.810961e+000
    endloop
  endfacet
  facet normal  0.000000e+000 -7.557503e-001 -6.548598e-001
    outer loop
      vertex  2.000000e+000  1.098229e+001  6.133625e+000
      vertex  0.000000e+000  1.126188e+001  5.810961e+000
      vertex  2.000000e+000  1.126188e+001  5.810961e+000
    endloop
  endfacet
  facet normal  -0.000000e+000 -9.096316e-001 -4.154158e-001
    outer loop
      vertex  2.000000e+000  1.126188e+001  5.810961e+000
      vertex  0.000000e+000  1.126188e+001  5.810961e+000
      vertex  0.000000e+000  1.143924e+001  5.422599e+000
    endloop
  endfacet
  facet normal  0.000000e+000 -9.096316e-001 -4.154158e-001
    outer loop
      vertex  2.000000e+000  1.126188e+001  5.810961e+000
      vertex  0.000000e+000  1.143924e+001  5.422599e+000
      vertex  2.000000e+000  1.143924e+001  5.422599e+000
    endloop
  endfacet
  facet normal  -0.000000e+000 -9.898215e-001 -1.423147e-001
    outer loop
      vertex  2.000000e+000  1.143924e+001  5.422599e+000
      vertex  0.000000e+000  1.143924e+001  5.422599e+000
      vertex  0.000000e+000  1.150000e+001  5.000000e+000
    endloop
  endfacet
  facet normal  0.000000e+000 -9.898215e-001 -1.423147e-001
    outer loop
      vertex  2.000000e+000  1.143924e+001  5.422599e+000
      vertex  0.000000e+000  1.150000e+001  5.000000e+000
      vertex  2.000000e+000  1.150000e+001  5.000000e+000
    endloop
  endfacet
  facet normal  0.000000e+000 -2.817326e-001  9.594930e-001
    outer loop
      vertex  0.000000e+000  1.021347e+001  3.515268e+000
      vertex  2.000000e+000  1.062312e+001  3.635552e+000
      vertex  0.000000e+000  1.062312e+001  3.635552e+000
    endloop
  endfacet
  facet normal  0.000000e+000 -5.406406e-001  8.412537e-001
    outer loop
      vertex  0.000000e+000  1.062312e+001  3.635552e+000
      vertex  2.000000e+000  1.062312e+001  3.635552e+000
      vertex  2.000000e+000  1.098229e+001  3.866376e+000
    endloop
  endfacet
  facet normal  0.000000e+000 -5.406406e-001  8.412537e-001
    outer loop
      vertex  0.000000e+000  1.062312e+001  3.635552e+000
      vertex  2.000000e+000  1.098229e+001  3.866376e+000
      vertex  0.000000e+000  1.098229e+001  3.866376e+000
    endloop
  endfacet
  facet normal  0.000000e+000 -7.557501e-001  6.548601e-001
    outer loop
      vertex  0.000000e+000  1.098229e+001  3.866376e+000
      vertex  2.000000e+000  1.098229e+001  3.866376e+000
      vertex  2.000000e+000  1.126188e+001  4.189039e+000
    endloop
  endfacet
  facet normal  0.000000e+000 -7.557501e-001  6.548601e-001
    outer loop
      vertex  0.000000e+000  1.098229e+001  3.866376e+000
      vertex  2.000000e+000  1.126188e+001  4.189039e+000
      vertex  0.000000e+000  1.126188e+001  4.189039e+000
    endloop
  endfacet
  facet normal  0.000000e+000 -9.096316e-001  4.154158e-001
    outer loop
      vertex  0.000000e+000  1.126188e+001  4.189039e+000
      vertex  2.000000e+000  1.126188e+001  4.189039e+000
      vertex  2.000000e+000  1.143924e+001  4.577401e+000
    endloop
  endfacet
  facet normal  0.000000e+000 -9.096316e-001  4.154158e-001
    outer loop
      vertex  0.000000e+000  1.126188e+001  4.189039e+000
      vertex  2.000000e+000  1.143924e+001  4.577401e+000
      vertex  0.000000e+000  1.143924e+001  4.577401e+000
    endloop
  endfacet
  facet normal  0.000000e+000 -9.898215e-001  1.423147e-001
    outer loop
      vertex  0.000000e+000  1.143924e+001  4.577401e+000
      vertex  2.000000e+000  1.143924e+001  4.577401e+000
      vertex  2.000000e+000  1.150000e+001  5.000000e+000
    endloop
  endfacet
  facet normal  0.000000e+000 -9.898215e-001  1.423147e-001
    outer loop
      vertex  0.000000e+000  1.143924e+001  4.577401e+000
      vertex  2.000000e+000  1.150000e+001  5.000000e+000
      vertex  0.000000e+000  1.150000e+001  5.000000e+000
    endloop
  endfacet
  facet normal  0.000000e+000 -2.817326e-001  9.594930e-001
    outer loop
      vertex  2.000000e+000  1.062312e+001  3.635552e+000
      vertex  0.000000e+000  1.021347e+001  3.515268e+000
      vertex  2.000000e+000  1.021347e+001  3.515268e+000
    endloop
  endfacet
  facet normal  0.000000e+000  0.000000e+000  1.000000e+000
    outer loop
      vertex  2.000000e+000  1.021347e+001  3.515268e+000
      vertex  0.000000e+000  1.021347e+001  3.515268e+000
      vertex  0.000000e+000  9.786528e+000  3.515268e+000
    endloop
  endfacet
  facet normal  0.000000e+000  0.000000e+000  1.000000e+000
    outer loop
      vertex  2.000000e+000  1.021347e+001  3.515268e+000
      vertex  0.000000e+000  9.786528e+000  3.515268e+000
      vertex  2.000000e+000  9.786528e+000  3.515268e+000
    endloop
  endfacet
  facet normal  0.000000e+000  2.817326e-001  9.594930e-001
    outer loop
      vertex  2.000000e+000  9.786528e+000  3.515268e+000
      vertex  0.000000e+000  9.786528e+000  3.515268e+000
      vertex  0.000000e+000  9.376878e+000  3.635552e+000
    endloop
  endfacet
  facet normal  -0.000000e+000  2.817326e-001  9.594930e-001
    outer loop
      vertex  2.000000e+000  9.786528e+000  3.515268e+000
      vertex  0.000000e+000  9.376878e+000  3.635552e+000
      vertex  2.000000e+000  9.376878e+000  3.635552e+000
    endloop
  endfacet
  facet normal  0.000000e+000  5.406406e-001  8.412537e-001
    outer loop
      vertex  2.000000e+000  9.376878e+000  3.635552e+000
      vertex  0.000000e+000  9.376878e+000  3.635552e+000
      vertex  0.000000e+000  9.017709e+000  3.866376e+000
    endloop
  endfacet
  facet normal  -0.000000e+000  5.406406e-001  8.412537e-001
    outer loop
      vertex  2.000000e+000  9.376878e+000  3.635552e+000
      vertex  0.000000e+000  9.017709e+000  3.866376e+000
      vertex  2.000000e+000  9.017709e+000  3.866376e+000
    endloop
  endfacet
  facet normal  0.000000e+000  7.557501e-001  6.548601e-001
    outer loop
      vertex  2.000000e+000  9.017709e+000  3.866376e+000
      vertex  0.000000e+000  9.017709e+000  3.866376e+000
      vertex  0.000000e+000  8.738120e+000  4.189039e+000
    endloop
  endfacet
  facet normal  -0.000000e+000  7.557501e-001  6.548601e-001
    outer loop
      vertex  2.000000e+000  9.017709e+000  3.866376e+000
      vertex  0.000000e+000  8.738120e+000  4.189039e+000
      vertex  2.000000e+000  8.738120e+000  4.189039e+000
    endloop
  endfacet
  facet normal  0.000000e+000  9.096316e-001  4.154158e-001
    outer loop
      vertex  2.000000e+000  8.738120e+000  4.189039e+000
      vertex  0.000000e+000  8.738120e+000  4.189039e+000
      vertex  0.000000e+000  8.560760e+000  4.577401e+000
    endloop
  endfacet
  facet normal  -0.000000e+000  9.096316e-001  4.154158e-001
    outer loop
      vertex  2.000000e+000  8.738120e+000  4.189039e+000
      vertex  0.000000e+000  8.560760e+000  4.577401e+000
      vertex  2.000000e+000  8.560760e+000  4.577401e+000
    endloop
  endfacet
  facet normal  0.000000e+000  9.898215e-001  1.423147e-001
    outer loop
      vertex  2.000000e+000  8.560760e+000  4.577401e+000
      vertex  0.000000e+000  8.560760e+000  4.577401e+000
      vertex  0.000000e+000  8.500000e+000  5.000000e+000
    endloop
  endfacet
  facet normal  -0.000000e+000  9.898215e-001  1.423147e-001
    outer loop
      vertex  2.000000e+000  8.560760e+000  4.577401e+000
      vertex  0.000000e+000  8.500000e+000  5.000000e+000
      vertex  2.000000e+000  8.500000e+000  5.000000e+000
    endloop
  endfacet
  facet normal  0.000000e+000  2.817306e-001 -9.594935e-001
    outer loop
      vertex  0.000000e+000  9.786528e+000  2.648473e+001
      vertex  2.000000e+000  9.376878e+000  2.636445e+001
      vertex  0.000000e+000  9.376878e+000  2.636445e+001
    endloop
  endfacet
  facet normal  0.000000e+000  5.406402e-001 -8.412540e-001
    outer loop
      vertex  0.000000e+000  9.376878e+000  2.636445e+001
      vertex  2.000000e+000  9.376878e+000  2.636445e+001
      vertex  2.000000e+000  9.017709e+000  2.613363e+001
    endloop
  endfacet
  facet normal  0.000000e+000  5.406402e-001 -8.412540e-001
    outer loop
      vertex  0.000000e+000  9.376878e+000  2.636445e+001
      vertex  2.000000e+000  9.017709e+000  2.613363e+001
      vertex  0.000000e+000  9.017709e+000  2.613363e+001
    endloop
  endfacet
  facet normal  0.000000e+000  7.557513e-001 -6.548588e-001
    outer loop
      vertex  0.000000e+000  9.017709e+000  2.613363e+001
      vertex  2.000000e+000  9.017709e+000  2.613363e+001
      vertex  2.000000e+000  8.738120e+000  2.581096e+001
    endloop
  endfacet
  facet normal  0.000000e+000  7.557513e-001 -6.548588e-001
    outer loop
      vertex  0.000000e+000  9.017709e+000  2.613363e+001
      vertex  2.000000e+000  8.738120e+000  2.581096e+001
      vertex  0.000000e+000  8.738120e+000  2.581096e+001
    endloop
  endfacet
  facet normal  0.000000e+000  9.096318e-001 -4.154154e-001
    outer loop
      vertex  0.000000e+000  8.738120e+000  2.581096e+001
      vertex  2.000000e+000  8.738120e+000  2.581096e+001
      vertex  2.000000e+000  8.560760e+000  2.542260e+001
    endloop
  endfacet
  facet normal  0.000000e+000  9.096318e-001 -4.154154e-001
    outer loop
      vertex  0.000000e+000  8.738120e+000  2.581096e+001
      vertex  2.000000e+000  8.560760e+000  2.542260e+001
      vertex  0.000000e+000  8.560760e+000  2.542260e+001
    endloop
  endfacet
  facet normal  0.000000e+000  9.898214e-001 -1.423150e-001
    outer loop
      vertex  0.000000e+000  8.560760e+000  2.542260e+001
      vertex  2.000000e+000  8.560760e+000  2.542260e+001
      vertex  2.000000e+000  8.500000e+000  2.500000e+001
    endloop
  endfacet
  facet normal  0.000000e+000  9.898214e-001 -1.423150e-001
    outer loop
      vertex  0.000000e+000  8.560760e+000  2.542260e+001
      vertex  2.000000e+000  8.500000e+000  2.500000e+001
      vertex  0.000000e+000  8.500000e+000  2.500000e+001
    endloop
  endfacet
  facet normal  0.000000e+000  2.817306e-001 -9.594935e-001
    outer loop
      vertex  2.000000e+000  9.376878e+000  2.636445e+001
      vertex  0.000000e+000  9.786528e+000  2.648473e+001
      vertex  2.000000e+000  9.786528e+000  2.648473e+001
    endloop
  endfacet
  facet normal  0.000000e+000  0.000000e+000 -1.000000e+000
    outer loop
      vertex  2.000000e+000  9.786528e+000  2.648473e+001
      vertex  0.000000e+000  9.786528e+000  2.648473e+001
      vertex  0.000000e+000  1.021347e+001  2.648473e+001
    endloop
  endfacet
  facet normal  0.000000e+000  0.000000e+000 -1.000000e+000
    outer loop
      vertex  2.000000e+000  9.786528e+000  2.648473e+001
      vertex  0.000000e+000  1.021347e+001  2.648473e+001
      vertex  2.000000e+000  1.021347e+001  2.648473e+001
    endloop
  endfacet
  facet normal  -0.000000e+000 -2.817306e-001 -9.594935e-001
    outer loop
      vertex  2.000000e+000  1.021347e+001  2.648473e+001
      vertex  0.000000e+000  1.021347e+001  2.648473e+001
      vertex  0.000000e+000  1.062312e+001  2.636445e+001
    endloop
  endfacet
  facet normal  0.000000e+000 -2.817306e-001 -9.594935e-001
    outer loop
      vertex  2.000000e+000  1.021347e+001  2.648473e+001
      vertex  0.000000e+000  1.062312e+001  2.636445e+001
      vertex  2.000000e+000  1.062312e+001  2.636445e+001
    endloop
  endfacet
  facet normal  -0.000000e+000 -5.406402e-001 -8.412540e-001
    outer loop
      vertex  2.000000e+000  1.062312e+001  2.636445e+001
      vertex  0.000000e+000  1.062312e+001  2.636445e+001
      vertex  0.000000e+000  1.098229e+001  2.613363e+001
    endloop
  endfacet
  facet normal  0.000000e+000 -5.406402e-001 -8.412540e-001
    outer loop
      vertex  2.000000e+000  1.062312e+001  2.636445e+001
      vertex  0.000000e+000  1.098229e+001  2.613363e+001
      vertex  2.000000e+000  1.098229e+001  2.613363e+001
    endloop
  endfacet
  facet normal  -0.000000e+000 -7.557513e-001 -6.548588e-001
    outer loop
      vertex  2.000000e+000  1.098229e+001  2.613363e+001
      vertex  0.000000e+000  1.098229e+001  2.613363e+001
      vertex  0.000000e+000  1.126188e+001  2.581096e+001
    endloop
  endfacet
  facet normal  0.000000e+000 -7.557513e-001 -6.548588e-001
    outer loop
      vertex  2.000000e+000  1.098229e+001  2.613363e+001
      vertex  0.000000e+000  1.126188e+001  2.581096e+001
      vertex  2.000000e+000  1.126188e+001  2.581096e+001
    endloop
  endfacet
  facet normal  -0.000000e+000 -9.096318e-001 -4.154154e-001
    outer loop
      vertex  2.000000e+000  1.126188e+001  2.581096e+001
      vertex  0.000000e+000  1.126188e+001  2.581096e+001
      vertex  0.000000e+000  1.143924e+001  2.542260e+001
    endloop
  endfacet
  facet normal  0.000000e+000 -9.096318e-001 -4.154154e-001
    outer loop
      vertex  2.000000e+000  1.126188e+001  2.581096e+001
      vertex  0.000000e+000  1.143924e+001  2.542260e+001
      vertex  2.000000e+000  1.143924e+001  2.542260e+001
    endloop
  endfacet
  facet normal  -0.000000e+000 -9.898214e-001 -1.423150e-001
    outer loop
      vertex  2.000000e+000  1.143924e+001  2.542260e+001
      vertex  0.000000e+000  1.143924e+001  2.542260e+001
      vertex  0.000000e+000  1.150000e+001  2.500000e+001
    endloop
  endfacet
  facet normal  0.000000e+000 -9.898214e-001 -1.423150e-001
    outer loop
      vertex  2.000000e+000  1.143924e+001  2.542260e+001
      vertex  0.000000e+000  1.150000e+001  2.500000e+001
      vertex  2.000000e+000  1.150000e+001  2.500000e+001
    endloop
  endfacet
  facet normal  0.000000e+000 -2.817306e-001  9.594935e-001
    outer loop
      vertex  0.000000e+000  1.021347e+001  2.351527e+001
      vertex  2.000000e+000  1.062312e+001  2.363555e+001
      vertex  0.000000e+000  1.062312e+001  2.363555e+001
    endloop
  endfacet
  facet normal  0.000000e+000 -5.406402e-001  8.412540e-001
    outer loop
      vertex  0.000000e+000  1.062312e+001  2.363555e+001
      vertex  2.000000e+000  1.062312e+001  2.363555e+001
      vertex  2.000000e+000  1.098229e+001  2.386637e+001
    endloop
  endfacet
  facet normal  0.000000e+000 -5.406402e-001  8.412540e-001
    outer loop
      vertex  0.000000e+000  1.062312e+001  2.363555e+001
      vertex  2.000000e+000  1.098229e+001  2.386637e+001
      vertex  0.000000e+000  1.098229e+001  2.386637e+001
    endloop
  endfacet
  facet normal  0.000000e+000 -7.557513e-001  6.548588e-001
    outer loop
      vertex  0.000000e+000  1.098229e+001  2.386637e+001
      vertex  2.000000e+000  1.098229e+001  2.386637e+001
      vertex  2.000000e+000  1.126188e+001  2.418904e+001
    endloop
  endfacet
  facet normal  0.000000e+000 -7.557513e-001  6.548588e-001
    outer loop
      vertex  0.000000e+000  1.098229e+001  2.386637e+001
      vertex  2.000000e+000  1.126188e+001  2.418904e+001
      vertex  0.000000e+000  1.126188e+001  2.418904e+001
    endloop
  endfacet
  facet normal  0.000000e+000 -9.096318e-001  4.154154e-001
    outer loop
      vertex  0.000000e+000  1.126188e+001  2.418904e+001
      vertex  2.000000e+000  1.126188e+001  2.418904e+001
      vertex  2.000000e+000  1.143924e+001  2.457740e+001
    endloop
  endfacet
  facet normal  0.000000e+000 -9.096318e-001  4.154154e-001
    outer loop
      vertex  0.000000e+000  1.126188e+001  2.418904e+001
      vertex  2.000000e+000  1.143924e+001  2.457740e+001
      vertex  0.000000e+000  1.143924e+001  2.457740e+001
    endloop
  endfacet
  facet normal  0.000000e+000 -9.898214e-001  1.423150e-001
    outer loop
      vertex  0.000000e+000  1.143924e+001  2.457740e+001
      vertex  2.000000e+000  1.143924e+001  2.457740e+001
      vertex  2.000000e+000  1.150000e+001  2.500000e+001
    endloop
  endfacet
  facet normal  0.000000e+000 -9.898214e-001  1.423150e-001
    outer loop
      vertex  0.000000e+000  1.143924e+001  2.457740e+001
      vertex  2.000000e+000  1.150000e+001  2.500000e+001
      vertex  0.000000e+000  1.150000e+001  2.500000e+001
    endloop
  endfacet
  facet normal  0.000000e+000 -2.817306e-001  9.594935e-001
    outer loop
      vertex  2.000000e+000  1.062312e+001  2.363555e+001
      vertex  0.000000e+000  1.021347e+001  2.351527e+001
      vertex  2.000000e+000  1.021347e+001  2.351527e+001
    endloop
  endfacet
  facet normal  0.000000e+000  0.000000e+000  1.000000e+000
    outer loop
      vertex  2.000000e+000  1.021347e+001  2.351527e+001
      vertex  0.000000e+000  1.021347e+001  2.351527e+001
      vertex  0.000000e+000  9.786528e+000  2.351527e+001
    endloop
  endfacet
  facet normal  0.000000e+000  0.000000e+000  1.000000e+000
    outer loop
      vertex  2.000000e+000  1.021347e+001  2.351527e+001
      vertex  0.000000e+000  9.786528e+000  2.351527e+001
      vertex  2.000000e+000  9.786528e+000  2.351527e+001
    endloop
  endfacet
  facet normal  0.000000e+000  2.817306e-001  9.594935e-001
    outer loop
      vertex  2.000000e+000  9.786528e+000  2.351527e+001
      vertex  0.000000e+000  9.786528e+000  2.351527e+001
      vertex  0.000000e+000  9.376878e+000  2.363555e+001
    endloop
  endfacet
  facet normal  -0.000000e+000  2.817306e-001  9.594935e-001
    outer loop
      vertex  2.000000e+000  9.786528e+000  2.351527e+001
      vertex  0.000000e+000  9.376878e+000  2.363555e+001
      vertex  2.000000e+000  9.376878e+000  2.363555e+001
    endloop
  endfacet
  facet normal  0.000000e+000  5.406402e-001  8.412540e-001
    outer loop
      vertex  2.000000e+000  9.376878e+000  2.363555e+001
      vertex  0.000000e+000  9.376878e+000  2.363555e+001
      vertex  0.000000e+000  9.017709e+000  2.386637e+001
    endloop
  endfacet
  facet normal  -0.000000e+000  5.406402e-001  8.412540e-001
    outer loop
      vertex  2.000000e+000  9.376878e+000  2.363555e+001
      vertex  0.000000e+000  9.017709e+000  2.386637e+001
      vertex  2.000000e+000  9.017709e+000  2.386637e+001
    endloop
  endfacet
  facet normal  0.000000e+000  7.557513e-001  6.548588e-001
    outer loop
      vertex  2.000000e+000  9.017709e+000  2.386637e+001
      vertex  0.000000e+000  9.017709e+000  2.386637e+001
      vertex  0.000000e+000  8.738120e+000  2.418904e+001
    endloop
  endfacet
  facet normal  -0.000000e+000  7.557513e-001  6.548588e-001
    outer loop
      vertex  2.000000e+000  9.017709e+000  2.386637e+001
      vertex  0.000000e+000  8.738120e+000  2.418904e+001
      vertex  2.000000e+000  8.738120e+000  2.418904e+001
    endloop
  endfacet
  facet normal  0.000000e+000  9.096318e-001  4.154154e-001
    outer loop
      vertex  2.000000e+000  8.738120e+000  2.418904e+001
      vertex  0.000000e+000  8.738120e+000  2.418904e+001
      vertex  0.000000e+000  8.560760e+000  2.457740e+001
    endloop
  endfacet
  facet normal  -0.000000e+000  9.096318e-001  4.154154e-001
    outer loop
      vertex  2.000000e+000  8.738120e+000  2.418904e+001
      vertex  0.000000e+000  8.560760e+000  2.457740e+001
      vertex  2.000000e+000  8.560760e+000  2.457740e+001
    endloop
  endfacet
  facet normal  0.000000e+000  9.898214e-001  1.423150e-001
    outer loop
      vertex  2.000000e+000  8.560760e+000  2.457740e+001
      vertex  0.000000e+000  8.560760e+000  2.457740e+001
      vertex  0.000000e+000  8.500000e+000  2.500000e+001
    endloop
  endfacet
  facet normal  -0.000000e+000  9.898214e-001  1.423150e-001
    outer loop
      vertex  2.000000e+000  8.560760e+000  2.457740e+001
      vertex  0.000000e+000  8.500000e+000  2.500000e+001
      vertex  2.000000e+000  8.500000e+000  2.500000e+001
    endloop
  endfacet
  facet normal  0.000000e+000 -1.000000e+000  4.736952e-016
    outer loop
      vertex  2.000000e+000  1.421085e-014  3.000000e+001
      vertex  0.000000e+000  1.421085e-014  3.000000e+001
      vertex  2.000000e+000  0.000000e+000  0.000000e+000
    endloop
  endfacet
  facet normal  0.000000e+000 -1.000000e+000  4.736952e-016
    outer loop
      vertex  2.000000e+000  0.000000e+000  0.000000e+000
      vertex  0.000000e+000  1.421085e-014  3.000000e+001
      vertex  0.000000e+000  0.000000e+000  0.000000e+000
    endloop
  endfacet
  facet normal  -0.000000e+000  0.000000e+000  1.000000e+000
    outer loop
      vertex  2.000000e+000  2.000000e+001  3.000000e+001
      vertex  0.000000e+000  2.000000e+001  3.000000e+001
      vertex  2.000000e+000  1.421085e-014  3.000000e+001
    endloop
  endfacet
  facet normal  0.000000e+000  0.000000e+000  1.000000e+000
    outer loop
      vertex  2.000000e+000  1.421085e-014  3.000000e+001
      vertex  0.000000e+000  2.000000e+001  3.000000e+001
      vertex  0.000000e+000  1.421085e-014  3.000000e+001
    endloop
  endfacet
  facet normal  0.000000e+000  1.000000e+000  0.000000e+000
    outer loop
      vertex  2.000000e+000  2.000000e+001  1.750000e+001
      vertex  0.000000e+000  2.000000e+001  1.750000e+001
      vertex  2.000000e+000  2.000000e+001  3.000000e+001
    endloop
  endfacet
  facet normal  0.000000e+000  1.000000e+000  0.000000e+000
    outer loop
      vertex  2.000000e+000  2.000000e+001  3.000000e+001
      vertex  0.000000e+000  2.000000e+001  1.750000e+001
      vertex  0.000000e+000  2.000000e+001  3.000000e+001
    endloop
  endfacet
  facet normal  0.000000e+000  0.000000e+000 -1.000000e+000
    outer loop
      vertex  2.000000e+000  1.250000e+001  1.750000e+001
      vertex  0.000000e+000  1.250000e+001  1.750000e+001
      vertex  2.000000e+000  2.000000e+001  1.750000e+001
    endloop
  endfacet
  facet normal  -0.000000e+000  0.000000e+000 -1.000000e+000
    outer loop
      vertex  2.000000e+000  2.000000e+001  1.750000e+001
      vertex  0.000000e+000  1.250000e+001  1.750000e+001
      vertex  0.000000e+000  2.000000e+001  1.750000e+001
    endloop
  endfacet
  facet normal  0.000000e+000  1.000000e+000  0.000000e+000
    outer loop
      vertex  2.000000e+000  1.250000e+001  1.250000e+001
      vertex  0.000000e+000  1.250000e+001  1.250000e+001
      vertex  2.000000e+000  1.250000e+001  1.750000e+001
    endloop
  endfacet
  facet normal  0.000000e+000  1.000000e+000  0.000000e+000
    outer loop
      vertex  2.000000e+000  1.250000e+001  1.750000e+001
      vertex  0.000000e+000  1.250000e+001  1.250000e+001
      vertex  0.000000e+000  1.250000e+001  1.750000e+001
    endloop
  endfacet
  facet normal  -0.000000e+000  0.000000e+000  1.000000e+000
    outer loop
      vertex  2.000000e+000  2.000000e+001  1.250000e+001
      vertex  0.000000e+000  2.000000e+001  1.250000e+001
      vertex  2.000000e+000  1.250000e+001  1.250000e+001
    endloop
  endfacet
  facet normal  0.000000e+000  0.000000e+000  1.000000e+000
    outer loop
      vertex  2.000000e+000  1.250000e+001  1.250000e+001
      vertex  0.000000e+000  2.000000e+001  1.250000e+001
      vertex  0.000000e+000  1.250000e+001  1.250000e+001
    endloop
  endfacet
  facet normal  0.000000e+000  1.000000e+000  0.000000e+000
    outer loop
      vertex  2.000000e+000  2.000000e+001  0.000000e+000
      vertex  0.000000e+000  2.000000e+001  0.000000e+000
      vertex  2.000000e+000  2.000000e+001  1.250000e+001
    endloop
  endfacet
  facet normal  0.000000e+000  1.000000e+000  0.000000e+000
    outer loop
      vertex  2.000000e+000  2.000000e+001  1.250000e+001
      vertex  0.000000e+000  2.000000e+001  0.000000e+000
      vertex  0.000000e+000  2.000000e+001  1.250000e+001
    endloop
  endfacet
  facet normal  0.000000e+000  0.000000e+000 -1.000000e+000
    outer loop
      vertex  2.000000e+000  0.000000e+000  0.000000e+000
      vertex  0.000000e+000  0.000000e+000  0.000000e+000
      vertex  2.000000e+000  2.000000e+001  0.000000e+000
    endloop
  endfacet
  facet normal  -0.000000e+000  0.000000e+000 -1.000000e+000
    outer loop
      vertex  2.000000e+000  2.000000e+001  0.000000e+000
      vertex  0.000000e+000  0.000000e+000  0.000000e+000
      vertex  0.000000e+000  2.000000e+001  0.000000e+000
    endloop
  endfacet
endsolid CATIA STL
